<?xml version="1.0" encoding="utf-8" ?>
<svg baseProfile="full" height="100%" version="1.1" width="100%" xmlns="http://www.w3.org/2000/svg" xmlns:ev="http://www.w3.org/2001/xml-events" xmlns:xlink="http://www.w3.org/1999/xlink"><defs /><text font-family="Verdana" font-size="24px" text-anchor="middle" x="50%" y="20">Berkeley Parser | Tree 1</text><text x="0" y="40">&lt;svg baseProfile="full" height="264px" preserveAspectRatio="xMidYMid meet" style="font-family: times, serif; font-weight: normal; font-style: normal; font-size: 16px;" version="1.1" viewBox="0,0,408.0,264.0" width="408px" xmlns="http://www.w3.org/2000/svg" xmlns:ev="http://www.w3.org/2001/xml-events" xmlns:xlink="http://www.w3.org/1999/xlink"&gt;&lt;defs /&gt;&lt;svg width="100%" x="0" y="0px"&gt;&lt;defs /&gt;&lt;text text-anchor="middle" x="50%" y="16px"&gt;S&lt;/text&gt;&lt;/svg&gt;&lt;svg width="29.4118%" x="0%" y="48px"&gt;&lt;defs /&gt;&lt;svg width="100%" x="0" y="0px"&gt;&lt;defs /&gt;&lt;text text-anchor="middle" x="50%" y="16px"&gt;NP&lt;/text&gt;&lt;/svg&gt;&lt;svg width="33.3333%" x="0%" y="48px"&gt;&lt;defs /&gt;&lt;svg width="100%" x="0" y="0px"&gt;&lt;defs /&gt;&lt;text text-anchor="middle" x="50%" y="16px"&gt;DT&lt;/text&gt;&lt;/svg&gt;&lt;svg width="100%" x="0%" y="48px"&gt;&lt;defs /&gt;&lt;svg width="100%" x="0" y="0px"&gt;&lt;defs /&gt;&lt;text text-anchor="middle" x="50%" y="16px"&gt;The&lt;/text&gt;&lt;/svg&gt;&lt;/svg&gt;&lt;line stroke="black" x1="50%" x2="50%" y1="19.2px" y2="48px" /&gt;&lt;/svg&gt;&lt;line stroke="black" x1="50%" x2="16.6667%" y1="19.2px" y2="48px" /&gt;&lt;svg width="33.3333%" x="33.3333%" y="48px"&gt;&lt;defs /&gt;&lt;svg width="100%" x="0" y="0px"&gt;&lt;defs /&gt;&lt;text text-anchor="middle" x="50%" y="16px"&gt;JJ&lt;/text&gt;&lt;/svg&gt;&lt;svg width="100%" x="0%" y="48px"&gt;&lt;defs /&gt;&lt;svg width="100%" x="0" y="0px"&gt;&lt;defs /&gt;&lt;text text-anchor="middle" x="50%" y="16px"&gt;old&lt;/text&gt;&lt;/svg&gt;&lt;/svg&gt;&lt;line stroke="black" x1="50%" x2="50%" y1="19.2px" y2="48px" /&gt;&lt;/svg&gt;&lt;line stroke="black" x1="50%" x2="50%" y1="19.2px" y2="48px" /&gt;&lt;svg width="33.3333%" x="66.6667%" y="48px"&gt;&lt;defs /&gt;&lt;svg width="100%" x="0" y="0px"&gt;&lt;defs /&gt;&lt;text text-anchor="middle" x="50%" y="16px"&gt;NN&lt;/text&gt;&lt;/svg&gt;&lt;svg width="100%" x="0%" y="48px"&gt;&lt;defs /&gt;&lt;svg width="100%" x="0" y="0px"&gt;&lt;defs /&gt;&lt;text text-anchor="middle" x="50%" y="16px"&gt;car&lt;/text&gt;&lt;/svg&gt;&lt;/svg&gt;&lt;line stroke="black" x1="50%" x2="50%" y1="19.2px" y2="48px" /&gt;&lt;/svg&gt;&lt;line stroke="black" x1="50%" x2="83.3333%" y1="19.2px" y2="48px" /&gt;&lt;/svg&gt;&lt;line stroke="black" x1="50%" x2="14.7059%" y1="19.2px" y2="48px" /&gt;&lt;svg width="64.7059%" x="29.4118%" y="48px"&gt;&lt;defs /&gt;&lt;svg width="100%" x="0" y="0px"&gt;&lt;defs /&gt;&lt;text text-anchor="middle" x="50%" y="16px"&gt;VP&lt;/text&gt;&lt;/svg&gt;&lt;svg width="21.2121%" x="0%" y="48px"&gt;&lt;defs /&gt;&lt;svg width="100%" x="0" y="0px"&gt;&lt;defs /&gt;&lt;text text-anchor="middle" x="50%" y="16px"&gt;VBD&lt;/text&gt;&lt;/svg&gt;&lt;svg width="100%" x="0%" y="48px"&gt;&lt;defs /&gt;&lt;svg width="100%" x="0" y="0px"&gt;&lt;defs /&gt;&lt;text text-anchor="middle" x="50%" y="16px"&gt;broke&lt;/text&gt;&lt;/svg&gt;&lt;/svg&gt;&lt;line stroke="black" x1="50%" x2="50%" y1="19.2px" y2="48px" /&gt;&lt;/svg&gt;&lt;line stroke="black" x1="50%" x2="10.6061%" y1="19.2px" y2="48px" /&gt;&lt;svg width="18.1818%" x="21.2121%" y="48px"&gt;&lt;defs /&gt;&lt;svg width="100%" x="0" y="0px"&gt;&lt;defs /&gt;&lt;text text-anchor="middle" x="50%" y="16px"&gt;PRT&lt;/text&gt;&lt;/svg&gt;&lt;svg width="100%" x="0%" y="48px"&gt;&lt;defs /&gt;&lt;svg width="100%" x="0" y="0px"&gt;&lt;defs /&gt;&lt;text text-anchor="middle" x="50%" y="16px"&gt;RP&lt;/text&gt;&lt;/svg&gt;&lt;svg width="100%" x="0%" y="48px"&gt;&lt;defs /&gt;&lt;svg width="100%" x="0" y="0px"&gt;&lt;defs /&gt;&lt;text text-anchor="middle" x="50%" y="16px"&gt;down&lt;/text&gt;&lt;/svg&gt;&lt;/svg&gt;&lt;line stroke="black" x1="50%" x2="50%" y1="19.2px" y2="48px" /&gt;&lt;/svg&gt;&lt;line stroke="black" x1="50%" x2="50%" y1="19.2px" y2="48px" /&gt;&lt;/svg&gt;&lt;line stroke="black" x1="50%" x2="30.303%" y1="19.2px" y2="48px" /&gt;&lt;svg width="60.6061%" x="39.3939%" y="48px"&gt;&lt;defs /&gt;&lt;svg width="100%" x="0" y="0px"&gt;&lt;defs /&gt;&lt;text text-anchor="middle" x="50%" y="16px"&gt;PP&lt;/text&gt;&lt;/svg&gt;&lt;svg width="20%" x="0%" y="48px"&gt;&lt;defs /&gt;&lt;svg width="100%" x="0" y="0px"&gt;&lt;defs /&gt;&lt;text text-anchor="middle" x="50%" y="16px"&gt;IN&lt;/text&gt;&lt;/svg&gt;&lt;svg width="100%" x="0%" y="48px"&gt;&lt;defs /&gt;&lt;svg width="100%" x="0" y="0px"&gt;&lt;defs /&gt;&lt;text text-anchor="middle" x="50%" y="16px"&gt;in&lt;/text&gt;&lt;/svg&gt;&lt;/svg&gt;&lt;line stroke="black" x1="50%" x2="50%" y1="19.2px" y2="48px" /&gt;&lt;/svg&gt;&lt;line stroke="black" x1="50%" x2="10%" y1="19.2px" y2="48px" /&gt;&lt;svg width="80%" x="20%" y="48px"&gt;&lt;defs /&gt;&lt;svg width="100%" x="0" y="0px"&gt;&lt;defs /&gt;&lt;text text-anchor="middle" x="50%" y="16px"&gt;NP&lt;/text&gt;&lt;/svg&gt;&lt;svg width="31.25%" x="0%" y="48px"&gt;&lt;defs /&gt;&lt;svg width="100%" x="0" y="0px"&gt;&lt;defs /&gt;&lt;text text-anchor="middle" x="50%" y="16px"&gt;DT&lt;/text&gt;&lt;/svg&gt;&lt;svg width="100%" x="0%" y="48px"&gt;&lt;defs /&gt;&lt;svg width="100%" x="0" y="0px"&gt;&lt;defs /&gt;&lt;text text-anchor="middle" x="50%" y="16px"&gt;the&lt;/text&gt;&lt;/svg&gt;&lt;/svg&gt;&lt;line stroke="black" x1="50%" x2="50%" y1="19.2px" y2="48px" /&gt;&lt;/svg&gt;&lt;line stroke="black" x1="50%" x2="15.625%" y1="19.2px" y2="48px" /&gt;&lt;svg width="31.25%" x="31.25%" y="48px"&gt;&lt;defs /&gt;&lt;svg width="100%" x="0" y="0px"&gt;&lt;defs /&gt;&lt;text text-anchor="middle" x="50%" y="16px"&gt;NN&lt;/text&gt;&lt;/svg&gt;&lt;svg width="100%" x="0%" y="48px"&gt;&lt;defs /&gt;&lt;svg width="100%" x="0" y="0px"&gt;&lt;defs /&gt;&lt;text text-anchor="middle" x="50%" y="16px"&gt;car&lt;/text&gt;&lt;/svg&gt;&lt;/svg&gt;&lt;line stroke="black" x1="50%" x2="50%" y1="19.2px" y2="48px" /&gt;&lt;/svg&gt;&lt;line stroke="black" x1="50%" x2="46.875%" y1="19.2px" y2="48px" /&gt;&lt;svg width="37.5%" x="62.5%" y="48px"&gt;&lt;defs /&gt;&lt;svg width="100%" x="0" y="0px"&gt;&lt;defs /&gt;&lt;text text-anchor="middle" x="50%" y="16px"&gt;NN&lt;/text&gt;&lt;/svg&gt;&lt;svg width="100%" x="0%" y="48px"&gt;&lt;defs /&gt;&lt;svg width="100%" x="0" y="0px"&gt;&lt;defs /&gt;&lt;text text-anchor="middle" x="50%" y="16px"&gt;park&lt;/text&gt;&lt;/svg&gt;&lt;/svg&gt;&lt;line stroke="black" x1="50%" x2="50%" y1="19.2px" y2="48px" /&gt;&lt;/svg&gt;&lt;line stroke="black" x1="50%" x2="81.25%" y1="19.2px" y2="48px" /&gt;&lt;/svg&gt;&lt;line stroke="black" x1="50%" x2="60%" y1="19.2px" y2="48px" /&gt;&lt;/svg&gt;&lt;line stroke="black" x1="50%" x2="69.697%" y1="19.2px" y2="48px" /&gt;&lt;/svg&gt;&lt;line stroke="black" x1="50%" x2="61.7647%" y1="19.2px" y2="48px" /&gt;&lt;svg width="5.88235%" x="94.1176%" y="48px"&gt;&lt;defs /&gt;&lt;svg width="100%" x="0" y="0px"&gt;&lt;defs /&gt;&lt;text text-anchor="middle" x="50%" y="16px"&gt;.&lt;/text&gt;&lt;/svg&gt;&lt;svg width="100%" x="0%" y="48px"&gt;&lt;defs /&gt;&lt;svg width="100%" x="0" y="0px"&gt;&lt;defs /&gt;&lt;text text-anchor="middle" x="50%" y="16px"&gt;.&lt;/text&gt;&lt;/svg&gt;&lt;/svg&gt;&lt;line stroke="black" x1="50%" x2="50%" y1="19.2px" y2="48px" /&gt;&lt;/svg&gt;&lt;line stroke="black" x1="50%" x2="97.0588%" y1="19.2px" y2="48px" /&gt;&lt;/svg&gt;</text></svg>