<svg baseProfile="full" height="1128px" preserveAspectRatio="xMidYMid meet" style="font-family: times, serif; font-weight: normal; font-style: normal; font-size: 16px;" version="1.1" viewBox="0,0,2720.0,1128.0" width="2720px" xmlns="http://www.w3.org/2000/svg" xmlns:ev="http://www.w3.org/2001/xml-events" xmlns:xlink="http://www.w3.org/1999/xlink"><defs /><svg width="100%" x="0" y="0px"><defs /><text text-anchor="middle" x="50%" y="16px">TOP</text></svg><svg width="99.1176%" x="0%" y="48px"><defs /><svg width="100%" x="0" y="0px"><defs /><text text-anchor="middle" x="50%" y="16px">S</text></svg><svg width="2.67062%" x="0%" y="48px"><defs /><svg width="100%" x="0" y="0px"><defs /><text text-anchor="middle" x="50%" y="16px">NP</text></svg><svg width="100%" x="0%" y="48px"><defs /><svg width="100%" x="0" y="0px"><defs /><text text-anchor="middle" x="50%" y="16px">NNP</text></svg><svg width="100%" x="0%" y="48px"><defs /><svg width="100%" x="0" y="0px"><defs /><text text-anchor="middle" x="50%" y="16px">English</text></svg></svg><line stroke="black" x1="50%" x2="50%" y1="19.2px" y2="48px" /></svg><line stroke="black" x1="50%" x2="50%" y1="19.2px" y2="48px" /></svg><line stroke="black" x1="50%" x2="1.33531%" y1="19.2px" y2="48px" /><svg width="97.3294%" x="2.67062%" y="48px"><defs /><svg width="100%" x="0" y="0px"><defs /><text text-anchor="middle" x="50%" y="16px">VP</text></svg><svg width="1.82927%" x="0%" y="48px"><defs /><svg width="100%" x="0" y="0px"><defs /><text text-anchor="middle" x="50%" y="16px">ADVP</text></svg><svg width="100%" x="0%" y="48px"><defs /><svg width="100%" x="0" y="0px"><defs /><text text-anchor="middle" x="50%" y="16px">RB</text></svg><svg width="100%" x="0%" y="48px"><defs /><svg width="100%" x="0" y="0px"><defs /><text text-anchor="middle" x="50%" y="16px">also</text></svg></svg><line stroke="black" x1="50%" x2="50%" y1="19.2px" y2="48px" /></svg><line stroke="black" x1="50%" x2="50%" y1="19.2px" y2="48px" /></svg><line stroke="black" x1="50%" x2="0.914634%" y1="19.2px" y2="48px" /><svg width="98.1707%" x="1.82927%" y="48px"><defs /><svg width="100%" x="0" y="0px"><defs /><text text-anchor="middle" x="50%" y="16px">VP</text></svg><svg width="1.5528%" x="0%" y="48px"><defs /><svg width="100%" x="0" y="0px"><defs /><text text-anchor="middle" x="50%" y="16px">VBZ</text></svg><svg width="100%" x="0%" y="48px"><defs /><svg width="100%" x="0" y="0px"><defs /><text text-anchor="middle" x="50%" y="16px">has</text></svg></svg><line stroke="black" x1="50%" x2="50%" y1="19.2px" y2="48px" /></svg><line stroke="black" x1="50%" x2="0.776398%" y1="19.2px" y2="48px" /><svg width="98.4472%" x="1.5528%" y="48px"><defs /><svg width="100%" x="0" y="0px"><defs /><text text-anchor="middle" x="50%" y="16px">NP</text></svg><svg width="100%" x="0%" y="48px"><defs /><svg width="100%" x="0" y="0px"><defs /><text text-anchor="middle" x="50%" y="16px">NP</text></svg><svg width="1.89274%" x="0%" y="48px"><defs /><svg width="100%" x="0" y="0px"><defs /><text text-anchor="middle" x="50%" y="16px">ADJP</text></svg><svg width="100%" x="0%" y="48px"><defs /><svg width="100%" x="0" y="0px"><defs /><text text-anchor="middle" x="50%" y="16px">JJ</text></svg><svg width="100%" x="0%" y="48px"><defs /><svg width="100%" x="0" y="0px"><defs /><text text-anchor="middle" x="50%" y="16px">many</text></svg></svg><line stroke="black" x1="50%" x2="50%" y1="19.2px" y2="48px" /></svg><line stroke="black" x1="50%" x2="50%" y1="19.2px" y2="48px" /></svg><line stroke="black" x1="50%" x2="0.946372%" y1="19.2px" y2="48px" /><svg width="98.1073%" x="1.89274%" y="48px"><defs /><svg width="100%" x="0" y="0px"><defs /><text text-anchor="middle" x="50%" y="16px">NP</text></svg><svg width="2.2508%" x="0%" y="48px"><defs /><svg width="100%" x="0" y="0px"><defs /><text text-anchor="middle" x="50%" y="16px">NNS</text></svg><svg width="100%" x="0%" y="48px"><defs /><svg width="100%" x="0" y="0px"><defs /><text text-anchor="middle" x="50%" y="16px">words</text></svg></svg><line stroke="black" x1="50%" x2="50%" y1="19.2px" y2="48px" /></svg><line stroke="black" x1="50%" x2="1.1254%" y1="19.2px" y2="48px" /><svg width="97.7492%" x="2.2508%" y="48px"><defs /><svg width="100%" x="0" y="0px"><defs /><text text-anchor="middle" x="50%" y="16px">PP</text></svg><svg width="1.31579%" x="0%" y="48px"><defs /><svg width="100%" x="0" y="0px"><defs /><text text-anchor="middle" x="50%" y="16px">IN</text></svg><svg width="100%" x="0%" y="48px"><defs /><svg width="100%" x="0" y="0px"><defs /><text text-anchor="middle" x="50%" y="16px">of</text></svg></svg><line stroke="black" x1="50%" x2="50%" y1="19.2px" y2="48px" /></svg><line stroke="black" x1="50%" x2="0.657895%" y1="19.2px" y2="48px" /><svg width="98.6842%" x="1.31579%" y="48px"><defs /><svg width="100%" x="0" y="0px"><defs /><text text-anchor="middle" x="50%" y="16px">NP</text></svg><svg width="11.3333%" x="0%" y="48px"><defs /><svg width="100%" x="0" y="0px"><defs /><text text-anchor="middle" x="50%" y="16px">NP</text></svg><svg width="47.0588%" x="0%" y="48px"><defs /><svg width="100%" x="0" y="0px"><defs /><text text-anchor="middle" x="50%" y="16px">ADJP</text></svg><svg width="37.5%" x="0%" y="48px"><defs /><svg width="100%" x="0" y="0px"><defs /><text text-anchor="middle" x="50%" y="16px">ADJP</text></svg><svg width="100%" x="0%" y="48px"><defs /><svg width="100%" x="0" y="0px"><defs /><text text-anchor="middle" x="50%" y="16px">JJR</text></svg><svg width="100%" x="0%" y="48px"><defs /><svg width="100%" x="0" y="0px"><defs /><text text-anchor="middle" x="50%" y="16px">more</text></svg></svg><line stroke="black" x1="50%" x2="50%" y1="19.2px" y2="48px" /></svg><line stroke="black" x1="50%" x2="50%" y1="19.2px" y2="48px" /></svg><line stroke="black" x1="50%" x2="18.75%" y1="19.2px" y2="48px" /><svg width="62.5%" x="37.5%" y="48px"><defs /><svg width="100%" x="0" y="0px"><defs /><text text-anchor="middle" x="50%" y="16px">CONJP</text></svg><svg width="40%" x="0%" y="48px"><defs /><svg width="100%" x="0" y="0px"><defs /><text text-anchor="middle" x="50%" y="16px">CC</text></svg><svg width="100%" x="0%" y="48px"><defs /><svg width="100%" x="0" y="0px"><defs /><text text-anchor="middle" x="50%" y="16px">or</text></svg></svg><line stroke="black" x1="50%" x2="50%" y1="19.2px" y2="48px" /></svg><line stroke="black" x1="50%" x2="20%" y1="19.2px" y2="48px" /><svg width="60%" x="40%" y="48px"><defs /><svg width="100%" x="0" y="0px"><defs /><text text-anchor="middle" x="50%" y="16px">ADJP</text></svg><svg width="100%" x="0%" y="48px"><defs /><svg width="100%" x="0" y="0px"><defs /><text text-anchor="middle" x="50%" y="16px">JJR</text></svg><svg width="100%" x="0%" y="48px"><defs /><svg width="100%" x="0" y="0px"><defs /><text text-anchor="middle" x="50%" y="16px">less</text></svg></svg><line stroke="black" x1="50%" x2="50%" y1="19.2px" y2="48px" /></svg><line stroke="black" x1="50%" x2="50%" y1="19.2px" y2="48px" /></svg><line stroke="black" x1="50%" x2="70%" y1="19.2px" y2="48px" /></svg><line stroke="black" x1="50%" x2="68.75%" y1="19.2px" y2="48px" /></svg><line stroke="black" x1="50%" x2="23.5294%" y1="19.2px" y2="48px" /><svg width="52.9412%" x="47.0588%" y="48px"><defs /><svg width="100%" x="0" y="0px"><defs /><text text-anchor="middle" x="50%" y="16px">NP</text></svg><svg width="44.4444%" x="0%" y="48px"><defs /><svg width="100%" x="0" y="0px"><defs /><text text-anchor="middle" x="50%" y="16px">ADJP</text></svg><svg width="100%" x="0%" y="48px"><defs /><svg width="100%" x="0" y="0px"><defs /><text text-anchor="middle" x="50%" y="16px">JJ</text></svg><svg width="100%" x="0%" y="48px"><defs /><svg width="100%" x="0" y="0px"><defs /><text text-anchor="middle" x="50%" y="16px">unique</text></svg></svg><line stroke="black" x1="50%" x2="50%" y1="19.2px" y2="48px" /></svg><line stroke="black" x1="50%" x2="50%" y1="19.2px" y2="48px" /></svg><line stroke="black" x1="50%" x2="22.2222%" y1="19.2px" y2="48px" /><svg width="55.5556%" x="44.4444%" y="48px"><defs /><svg width="100%" x="0" y="0px"><defs /><text text-anchor="middle" x="50%" y="16px">NN</text></svg><svg width="100%" x="0%" y="48px"><defs /><svg width="100%" x="0" y="0px"><defs /><text text-anchor="middle" x="50%" y="16px">function</text></svg></svg><line stroke="black" x1="50%" x2="50%" y1="19.2px" y2="48px" /></svg><line stroke="black" x1="50%" x2="72.2222%" y1="19.2px" y2="48px" /></svg><line stroke="black" x1="50%" x2="73.5294%" y1="19.2px" y2="48px" /></svg><line stroke="black" x1="50%" x2="5.66667%" y1="19.2px" y2="48px" /><svg width="88.6667%" x="11.3333%" y="48px"><defs /><svg width="100%" x="0" y="0px"><defs /><text text-anchor="middle" x="50%" y="16px">VP</text></svg><svg width="1.12782%" x="0%" y="48px"><defs /><svg width="100%" x="0" y="0px"><defs /><text text-anchor="middle" x="50%" y="16px">,</text></svg><svg width="100%" x="0%" y="48px"><defs /><svg width="100%" x="0" y="0px"><defs /><text text-anchor="middle" x="50%" y="16px">,</text></svg></svg><line stroke="black" x1="50%" x2="50%" y1="19.2px" y2="48px" /></svg><line stroke="black" x1="50%" x2="0.56391%" y1="19.2px" y2="48px" /><svg width="98.8722%" x="1.12782%" y="48px"><defs /><svg width="100%" x="0" y="0px"><defs /><text text-anchor="middle" x="50%" y="16px">VP</text></svg><svg width="100%" x="0%" y="48px"><defs /><svg width="100%" x="0" y="0px"><defs /><text text-anchor="middle" x="50%" y="16px">VP</text></svg><svg width="94.2966%" x="0%" y="48px"><defs /><svg width="100%" x="0" y="0px"><defs /><text text-anchor="middle" x="50%" y="16px">VP</text></svg><svg width="100%" x="0%" y="48px"><defs /><svg width="100%" x="0" y="0px"><defs /><text text-anchor="middle" x="50%" y="16px">VP</text></svg><svg width="4.43548%" x="0%" y="48px"><defs /><svg width="100%" x="0" y="0px"><defs /><text text-anchor="middle" x="50%" y="16px">VBG</text></svg><svg width="100%" x="0%" y="48px"><defs /><svg width="100%" x="0" y="0px"><defs /><text text-anchor="middle" x="50%" y="16px">including</text></svg></svg><line stroke="black" x1="50%" x2="50%" y1="19.2px" y2="48px" /></svg><line stroke="black" x1="50%" x2="2.21774%" y1="19.2px" y2="48px" /><svg width="16.129%" x="4.43548%" y="48px"><defs /><svg width="100%" x="0" y="0px"><defs /><text text-anchor="middle" x="50%" y="16px">NP</text></svg><svg width="37.5%" x="0%" y="48px"><defs /><svg width="100%" x="0" y="0px"><defs /><text text-anchor="middle" x="50%" y="16px">NP</text></svg><svg width="100%" x="0%" y="48px"><defs /><svg width="100%" x="0" y="0px"><defs /><text text-anchor="middle" x="50%" y="16px">NNS</text></svg><svg width="100%" x="0%" y="48px"><defs /><svg width="100%" x="0" y="0px"><defs /><text text-anchor="middle" x="50%" y="16px">interjections</text></svg></svg><line stroke="black" x1="50%" x2="50%" y1="19.2px" y2="48px" /></svg><line stroke="black" x1="50%" x2="50%" y1="19.2px" y2="48px" /></svg><line stroke="black" x1="50%" x2="18.75%" y1="19.2px" y2="48px" /><svg width="62.5%" x="37.5%" y="48px"><defs /><svg width="100%" x="0" y="0px"><defs /><text text-anchor="middle" x="50%" y="16px">PRN</text></svg><svg width="28%" x="0%" y="48px"><defs /><svg width="100%" x="0" y="0px"><defs /><text text-anchor="middle" x="50%" y="16px">-LRB-</text></svg><svg width="100%" x="0%" y="48px"><defs /><svg width="100%" x="0" y="0px"><defs /><text text-anchor="middle" x="50%" y="16px">-LRB-</text></svg></svg><line stroke="black" x1="50%" x2="50%" y1="19.2px" y2="48px" /></svg><line stroke="black" x1="50%" x2="14%" y1="19.2px" y2="48px" /><svg width="44%" x="28%" y="48px"><defs /><svg width="100%" x="0" y="0px"><defs /><text text-anchor="middle" x="50%" y="16px">LST</text></svg><svg width="63.6364%" x="0%" y="48px"><defs /><svg width="100%" x="0" y="0px"><defs /><text text-anchor="middle" x="50%" y="16px">LST</text></svg><svg width="57.1429%" x="0%" y="48px"><defs /><svg width="100%" x="0" y="0px"><defs /><text text-anchor="middle" x="50%" y="16px">UH</text></svg><svg width="100%" x="0%" y="48px"><defs /><svg width="100%" x="0" y="0px"><defs /><text text-anchor="middle" x="50%" y="16px">oh</text></svg></svg><line stroke="black" x1="50%" x2="50%" y1="19.2px" y2="48px" /></svg><line stroke="black" x1="50%" x2="28.5714%" y1="19.2px" y2="48px" /><svg width="42.8571%" x="57.1429%" y="48px"><defs /><svg width="100%" x="0" y="0px"><defs /><text text-anchor="middle" x="50%" y="16px">,</text></svg><svg width="100%" x="0%" y="48px"><defs /><svg width="100%" x="0" y="0px"><defs /><text text-anchor="middle" x="50%" y="16px">,</text></svg></svg><line stroke="black" x1="50%" x2="50%" y1="19.2px" y2="48px" /></svg><line stroke="black" x1="50%" x2="78.5714%" y1="19.2px" y2="48px" /></svg><line stroke="black" x1="50%" x2="31.8182%" y1="19.2px" y2="48px" /><svg width="36.3636%" x="63.6364%" y="48px"><defs /><svg width="100%" x="0" y="0px"><defs /><text text-anchor="middle" x="50%" y="16px">UH</text></svg><svg width="100%" x="0%" y="48px"><defs /><svg width="100%" x="0" y="0px"><defs /><text text-anchor="middle" x="50%" y="16px">ah</text></svg></svg><line stroke="black" x1="50%" x2="50%" y1="19.2px" y2="48px" /></svg><line stroke="black" x1="50%" x2="81.8182%" y1="19.2px" y2="48px" /></svg><line stroke="black" x1="50%" x2="50%" y1="19.2px" y2="48px" /><svg width="28%" x="72%" y="48px"><defs /><svg width="100%" x="0" y="0px"><defs /><text text-anchor="middle" x="50%" y="16px">-RRB-</text></svg><svg width="100%" x="0%" y="48px"><defs /><svg width="100%" x="0" y="0px"><defs /><text text-anchor="middle" x="50%" y="16px">-RRB-</text></svg></svg><line stroke="black" x1="50%" x2="50%" y1="19.2px" y2="48px" /></svg><line stroke="black" x1="50%" x2="86%" y1="19.2px" y2="48px" /></svg><line stroke="black" x1="50%" x2="68.75%" y1="19.2px" y2="48px" /></svg><line stroke="black" x1="50%" x2="12.5%" y1="19.2px" y2="48px" /><svg width="1.20968%" x="20.5645%" y="48px"><defs /><svg width="100%" x="0" y="0px"><defs /><text text-anchor="middle" x="50%" y="16px">,</text></svg><svg width="100%" x="0%" y="48px"><defs /><svg width="100%" x="0" y="0px"><defs /><text text-anchor="middle" x="50%" y="16px">,</text></svg></svg><line stroke="black" x1="50%" x2="50%" y1="19.2px" y2="48px" /></svg><line stroke="black" x1="50%" x2="21.1694%" y1="19.2px" y2="48px" /><svg width="14.9194%" x="21.7742%" y="48px"><defs /><svg width="100%" x="0" y="0px"><defs /><text text-anchor="middle" x="50%" y="16px">NP</text></svg><svg width="29.7297%" x="0%" y="48px"><defs /><svg width="100%" x="0" y="0px"><defs /><text text-anchor="middle" x="50%" y="16px">NP</text></svg><svg width="100%" x="0%" y="48px"><defs /><svg width="100%" x="0" y="0px"><defs /><text text-anchor="middle" x="50%" y="16px">NNS</text></svg><svg width="100%" x="0%" y="48px"><defs /><svg width="100%" x="0" y="0px"><defs /><text text-anchor="middle" x="50%" y="16px">negatives</text></svg></svg><line stroke="black" x1="50%" x2="50%" y1="19.2px" y2="48px" /></svg><line stroke="black" x1="50%" x2="50%" y1="19.2px" y2="48px" /></svg><line stroke="black" x1="50%" x2="14.8649%" y1="19.2px" y2="48px" /><svg width="70.2703%" x="29.7297%" y="48px"><defs /><svg width="100%" x="0" y="0px"><defs /><text text-anchor="middle" x="50%" y="16px">PRN</text></svg><svg width="26.9231%" x="0%" y="48px"><defs /><svg width="100%" x="0" y="0px"><defs /><text text-anchor="middle" x="50%" y="16px">-LRB-</text></svg><svg width="100%" x="0%" y="48px"><defs /><svg width="100%" x="0" y="0px"><defs /><text text-anchor="middle" x="50%" y="16px">-LRB-</text></svg></svg><line stroke="black" x1="50%" x2="50%" y1="19.2px" y2="48px" /></svg><line stroke="black" x1="50%" x2="13.4615%" y1="19.2px" y2="48px" /><svg width="46.1538%" x="26.9231%" y="48px"><defs /><svg width="100%" x="0" y="0px"><defs /><text text-anchor="middle" x="50%" y="16px">LST</text></svg><svg width="58.3333%" x="0%" y="48px"><defs /><svg width="100%" x="0" y="0px"><defs /><text text-anchor="middle" x="50%" y="16px">LST</text></svg><svg width="57.1429%" x="0%" y="48px"><defs /><svg width="100%" x="0" y="0px"><defs /><text text-anchor="middle" x="50%" y="16px">RB</text></svg><svg width="100%" x="0%" y="48px"><defs /><svg width="100%" x="0" y="0px"><defs /><text text-anchor="middle" x="50%" y="16px">no</text></svg></svg><line stroke="black" x1="50%" x2="50%" y1="19.2px" y2="48px" /></svg><line stroke="black" x1="50%" x2="28.5714%" y1="19.2px" y2="48px" /><svg width="42.8571%" x="57.1429%" y="48px"><defs /><svg width="100%" x="0" y="0px"><defs /><text text-anchor="middle" x="50%" y="16px">,</text></svg><svg width="100%" x="0%" y="48px"><defs /><svg width="100%" x="0" y="0px"><defs /><text text-anchor="middle" x="50%" y="16px">,</text></svg></svg><line stroke="black" x1="50%" x2="50%" y1="19.2px" y2="48px" /></svg><line stroke="black" x1="50%" x2="78.5714%" y1="19.2px" y2="48px" /></svg><line stroke="black" x1="50%" x2="29.1667%" y1="19.2px" y2="48px" /><svg width="41.6667%" x="58.3333%" y="48px"><defs /><svg width="100%" x="0" y="0px"><defs /><text text-anchor="middle" x="50%" y="16px">RB</text></svg><svg width="100%" x="0%" y="48px"><defs /><svg width="100%" x="0" y="0px"><defs /><text text-anchor="middle" x="50%" y="16px">not</text></svg></svg><line stroke="black" x1="50%" x2="50%" y1="19.2px" y2="48px" /></svg><line stroke="black" x1="50%" x2="79.1667%" y1="19.2px" y2="48px" /></svg><line stroke="black" x1="50%" x2="50%" y1="19.2px" y2="48px" /><svg width="26.9231%" x="73.0769%" y="48px"><defs /><svg width="100%" x="0" y="0px"><defs /><text text-anchor="middle" x="50%" y="16px">-RRB-</text></svg><svg width="100%" x="0%" y="48px"><defs /><svg width="100%" x="0" y="0px"><defs /><text text-anchor="middle" x="50%" y="16px">-RRB-</text></svg></svg><line stroke="black" x1="50%" x2="50%" y1="19.2px" y2="48px" /></svg><line stroke="black" x1="50%" x2="86.5385%" y1="19.2px" y2="48px" /></svg><line stroke="black" x1="50%" x2="64.8649%" y1="19.2px" y2="48px" /></svg><line stroke="black" x1="50%" x2="29.2339%" y1="19.2px" y2="48px" /><svg width="1.20968%" x="36.6935%" y="48px"><defs /><svg width="100%" x="0" y="0px"><defs /><text text-anchor="middle" x="50%" y="16px">,</text></svg><svg width="100%" x="0%" y="48px"><defs /><svg width="100%" x="0" y="0px"><defs /><text text-anchor="middle" x="50%" y="16px">,</text></svg></svg><line stroke="black" x1="50%" x2="50%" y1="19.2px" y2="48px" /></svg><line stroke="black" x1="50%" x2="37.2984%" y1="19.2px" y2="48px" /><svg width="23.3871%" x="37.9032%" y="48px"><defs /><svg width="100%" x="0" y="0px"><defs /><text text-anchor="middle" x="50%" y="16px">NP</text></svg><svg width="36.2069%" x="0%" y="48px"><defs /><svg width="100%" x="0" y="0px"><defs /><text text-anchor="middle" x="50%" y="16px">NP</text></svg><svg width="57.1429%" x="0%" y="48px"><defs /><svg width="100%" x="0" y="0px"><defs /><text text-anchor="middle" x="50%" y="16px">NN</text></svg><svg width="100%" x="0%" y="48px"><defs /><svg width="100%" x="0" y="0px"><defs /><text text-anchor="middle" x="50%" y="16px">politeness</text></svg></svg><line stroke="black" x1="50%" x2="50%" y1="19.2px" y2="48px" /></svg><line stroke="black" x1="50%" x2="28.5714%" y1="19.2px" y2="48px" /><svg width="42.8571%" x="57.1429%" y="48px"><defs /><svg width="100%" x="0" y="0px"><defs /><text text-anchor="middle" x="50%" y="16px">NNS</text></svg><svg width="100%" x="0%" y="48px"><defs /><svg width="100%" x="0" y="0px"><defs /><text text-anchor="middle" x="50%" y="16px">markers</text></svg></svg><line stroke="black" x1="50%" x2="50%" y1="19.2px" y2="48px" /></svg><line stroke="black" x1="50%" x2="78.5714%" y1="19.2px" y2="48px" /></svg><line stroke="black" x1="50%" x2="18.1034%" y1="19.2px" y2="48px" /><svg width="63.7931%" x="36.2069%" y="48px"><defs /><svg width="100%" x="0" y="0px"><defs /><text text-anchor="middle" x="50%" y="16px">PRN</text></svg><svg width="18.9189%" x="0%" y="48px"><defs /><svg width="100%" x="0" y="0px"><defs /><text text-anchor="middle" x="50%" y="16px">-LRB-</text></svg><svg width="100%" x="0%" y="48px"><defs /><svg width="100%" x="0" y="0px"><defs /><text text-anchor="middle" x="50%" y="16px">-LRB-</text></svg></svg><line stroke="black" x1="50%" x2="50%" y1="19.2px" y2="48px" /></svg><line stroke="black" x1="50%" x2="9.45946%" y1="19.2px" y2="48px" /><svg width="62.1622%" x="18.9189%" y="48px"><defs /><svg width="100%" x="0" y="0px"><defs /><text text-anchor="middle" x="50%" y="16px">LST</text></svg><svg width="47.8261%" x="0%" y="48px"><defs /><svg width="100%" x="0" y="0px"><defs /><text text-anchor="middle" x="50%" y="16px">LST</text></svg><svg width="72.7273%" x="0%" y="48px"><defs /><svg width="100%" x="0" y="0px"><defs /><text text-anchor="middle" x="50%" y="16px">UH</text></svg><svg width="100%" x="0%" y="48px"><defs /><svg width="100%" x="0" y="0px"><defs /><text text-anchor="middle" x="50%" y="16px">please</text></svg></svg><line stroke="black" x1="50%" x2="50%" y1="19.2px" y2="48px" /></svg><line stroke="black" x1="50%" x2="36.3636%" y1="19.2px" y2="48px" /><svg width="27.2727%" x="72.7273%" y="48px"><defs /><svg width="100%" x="0" y="0px"><defs /><text text-anchor="middle" x="50%" y="16px">,</text></svg><svg width="100%" x="0%" y="48px"><defs /><svg width="100%" x="0" y="0px"><defs /><text text-anchor="middle" x="50%" y="16px">,</text></svg></svg><line stroke="black" x1="50%" x2="50%" y1="19.2px" y2="48px" /></svg><line stroke="black" x1="50%" x2="86.3636%" y1="19.2px" y2="48px" /></svg><line stroke="black" x1="50%" x2="23.913%" y1="19.2px" y2="48px" /><svg width="52.1739%" x="47.8261%" y="48px"><defs /><svg width="100%" x="0" y="0px"><defs /><text text-anchor="middle" x="50%" y="16px">VP</text></svg><svg width="58.3333%" x="0%" y="48px"><defs /><svg width="100%" x="0" y="0px"><defs /><text text-anchor="middle" x="50%" y="16px">VB</text></svg><svg width="100%" x="0%" y="48px"><defs /><svg width="100%" x="0" y="0px"><defs /><text text-anchor="middle" x="50%" y="16px">thank</text></svg></svg><line stroke="black" x1="50%" x2="50%" y1="19.2px" y2="48px" /></svg><line stroke="black" x1="50%" x2="29.1667%" y1="19.2px" y2="48px" /><svg width="41.6667%" x="58.3333%" y="48px"><defs /><svg width="100%" x="0" y="0px"><defs /><text text-anchor="middle" x="50%" y="16px">NP</text></svg><svg width="100%" x="0%" y="48px"><defs /><svg width="100%" x="0" y="0px"><defs /><text text-anchor="middle" x="50%" y="16px">PRP</text></svg><svg width="100%" x="0%" y="48px"><defs /><svg width="100%" x="0" y="0px"><defs /><text text-anchor="middle" x="50%" y="16px">you</text></svg></svg><line stroke="black" x1="50%" x2="50%" y1="19.2px" y2="48px" /></svg><line stroke="black" x1="50%" x2="50%" y1="19.2px" y2="48px" /></svg><line stroke="black" x1="50%" x2="79.1667%" y1="19.2px" y2="48px" /></svg><line stroke="black" x1="50%" x2="73.913%" y1="19.2px" y2="48px" /></svg><line stroke="black" x1="50%" x2="50%" y1="19.2px" y2="48px" /><svg width="18.9189%" x="81.0811%" y="48px"><defs /><svg width="100%" x="0" y="0px"><defs /><text text-anchor="middle" x="50%" y="16px">-RRB-</text></svg><svg width="100%" x="0%" y="48px"><defs /><svg width="100%" x="0" y="0px"><defs /><text text-anchor="middle" x="50%" y="16px">-RRB-</text></svg></svg><line stroke="black" x1="50%" x2="50%" y1="19.2px" y2="48px" /></svg><line stroke="black" x1="50%" x2="90.5405%" y1="19.2px" y2="48px" /></svg><line stroke="black" x1="50%" x2="68.1034%" y1="19.2px" y2="48px" /></svg><line stroke="black" x1="50%" x2="49.5968%" y1="19.2px" y2="48px" /><svg width="1.20968%" x="61.2903%" y="48px"><defs /><svg width="100%" x="0" y="0px"><defs /><text text-anchor="middle" x="50%" y="16px">,</text></svg><svg width="100%" x="0%" y="48px"><defs /><svg width="100%" x="0" y="0px"><defs /><text text-anchor="middle" x="50%" y="16px">,</text></svg></svg><line stroke="black" x1="50%" x2="50%" y1="19.2px" y2="48px" /></svg><line stroke="black" x1="50%" x2="61.8952%" y1="19.2px" y2="48px" /><svg width="34.6774%" x="62.5%" y="48px"><defs /><svg width="100%" x="0" y="0px"><defs /><text text-anchor="middle" x="50%" y="16px">CONJP</text></svg><svg width="5.81395%" x="0%" y="48px"><defs /><svg width="100%" x="0" y="0px"><defs /><text text-anchor="middle" x="50%" y="16px">CC</text></svg><svg width="100%" x="0%" y="48px"><defs /><svg width="100%" x="0" y="0px"><defs /><text text-anchor="middle" x="50%" y="16px">and</text></svg></svg><line stroke="black" x1="50%" x2="50%" y1="19.2px" y2="48px" /></svg><line stroke="black" x1="50%" x2="2.90698%" y1="19.2px" y2="48px" /><svg width="94.186%" x="5.81395%" y="48px"><defs /><svg width="100%" x="0" y="0px"><defs /><text text-anchor="middle" x="50%" y="16px">ADVP</text></svg><svg width="40.7407%" x="0%" y="48px"><defs /><svg width="100%" x="0" y="0px"><defs /><text text-anchor="middle" x="50%" y="16px">ADVP</text></svg><svg width="87.8788%" x="0%" y="48px"><defs /><svg width="100%" x="0" y="0px"><defs /><text text-anchor="middle" x="50%" y="16px">ADVP</text></svg><svg width="17.2414%" x="0%" y="48px"><defs /><svg width="100%" x="0" y="0px"><defs /><text text-anchor="middle" x="50%" y="16px">DT</text></svg><svg width="100%" x="0%" y="48px"><defs /><svg width="100%" x="0" y="0px"><defs /><text text-anchor="middle" x="50%" y="16px">the</text></svg></svg><line stroke="black" x1="50%" x2="50%" y1="19.2px" y2="48px" /></svg><line stroke="black" x1="50%" x2="8.62069%" y1="19.2px" y2="48px" /><svg width="82.7586%" x="17.2414%" y="48px"><defs /><svg width="100%" x="0" y="0px"><defs /><text text-anchor="middle" x="50%" y="16px">ADVP</text></svg><svg width="54.1667%" x="0%" y="48px"><defs /><svg width="100%" x="0" y="0px"><defs /><text text-anchor="middle" x="50%" y="16px">ADJP</text></svg><svg width="100%" x="0%" y="48px"><defs /><svg width="100%" x="0" y="0px"><defs /><text text-anchor="middle" x="50%" y="16px">JJ</text></svg><svg width="100%" x="0%" y="48px"><defs /><svg width="100%" x="0" y="0px"><defs /><text text-anchor="middle" x="50%" y="16px">existential</text></svg></svg><line stroke="black" x1="50%" x2="50%" y1="19.2px" y2="48px" /></svg><line stroke="black" x1="50%" x2="50%" y1="19.2px" y2="48px" /></svg><line stroke="black" x1="50%" x2="27.0833%" y1="19.2px" y2="48px" /><svg width="16.6667%" x="54.1667%" y="48px"><defs /><svg width="100%" x="0" y="0px"><defs /><text text-anchor="middle" x="50%" y="16px">``</text></svg><svg width="100%" x="0%" y="48px"><defs /><svg width="100%" x="0" y="0px"><defs /><text text-anchor="middle" x="50%" y="16px">'</text></svg></svg><line stroke="black" x1="50%" x2="50%" y1="19.2px" y2="48px" /></svg><line stroke="black" x1="50%" x2="62.5%" y1="19.2px" y2="48px" /><svg width="29.1667%" x="70.8333%" y="48px"><defs /><svg width="100%" x="0" y="0px"><defs /><text text-anchor="middle" x="50%" y="16px">ADVP</text></svg><svg width="100%" x="0%" y="48px"><defs /><svg width="100%" x="0" y="0px"><defs /><text text-anchor="middle" x="50%" y="16px">RB</text></svg><svg width="100%" x="0%" y="48px"><defs /><svg width="100%" x="0" y="0px"><defs /><text text-anchor="middle" x="50%" y="16px">there</text></svg></svg><line stroke="black" x1="50%" x2="50%" y1="19.2px" y2="48px" /></svg><line stroke="black" x1="50%" x2="50%" y1="19.2px" y2="48px" /></svg><line stroke="black" x1="50%" x2="85.4167%" y1="19.2px" y2="48px" /></svg><line stroke="black" x1="50%" x2="58.6207%" y1="19.2px" y2="48px" /></svg><line stroke="black" x1="50%" x2="43.9394%" y1="19.2px" y2="48px" /><svg width="12.1212%" x="87.8788%" y="48px"><defs /><svg width="100%" x="0" y="0px"><defs /><text text-anchor="middle" x="50%" y="16px">''</text></svg><svg width="100%" x="0%" y="48px"><defs /><svg width="100%" x="0" y="0px"><defs /><text text-anchor="middle" x="50%" y="16px">'</text></svg></svg><line stroke="black" x1="50%" x2="50%" y1="19.2px" y2="48px" /></svg><line stroke="black" x1="50%" x2="93.9394%" y1="19.2px" y2="48px" /></svg><line stroke="black" x1="50%" x2="20.3704%" y1="19.2px" y2="48px" /><svg width="59.2593%" x="40.7407%" y="48px"><defs /><svg width="100%" x="0" y="0px"><defs /><text text-anchor="middle" x="50%" y="16px">PRN</text></svg><svg width="14.5833%" x="0%" y="48px"><defs /><svg width="100%" x="0" y="0px"><defs /><text text-anchor="middle" x="50%" y="16px">-LRB-</text></svg><svg width="100%" x="0%" y="48px"><defs /><svg width="100%" x="0" y="0px"><defs /><text text-anchor="middle" x="50%" y="16px">-LRB-</text></svg></svg><line stroke="black" x1="50%" x2="50%" y1="19.2px" y2="48px" /></svg><line stroke="black" x1="50%" x2="7.29167%" y1="19.2px" y2="48px" /><svg width="85.4167%" x="14.5833%" y="48px"><defs /><svg width="100%" x="0" y="0px"><defs /><text text-anchor="middle" x="50%" y="16px">S</text></svg><svg width="17.0732%" x="0%" y="48px"><defs /><svg width="100%" x="0" y="0px"><defs /><text text-anchor="middle" x="50%" y="16px">EX</text></svg><svg width="100%" x="0%" y="48px"><defs /><svg width="100%" x="0" y="0px"><defs /><text text-anchor="middle" x="50%" y="16px">there</text></svg></svg><line stroke="black" x1="50%" x2="50%" y1="19.2px" y2="48px" /></svg><line stroke="black" x1="50%" x2="8.53659%" y1="19.2px" y2="48px" /><svg width="82.9268%" x="17.0732%" y="48px"><defs /><svg width="100%" x="0" y="0px"><defs /><text text-anchor="middle" x="50%" y="16px">VP</text></svg><svg width="14.7059%" x="0%" y="48px"><defs /><svg width="100%" x="0" y="0px"><defs /><text text-anchor="middle" x="50%" y="16px">VBP</text></svg><svg width="100%" x="0%" y="48px"><defs /><svg width="100%" x="0" y="0px"><defs /><text text-anchor="middle" x="50%" y="16px">are</text></svg></svg><line stroke="black" x1="50%" x2="50%" y1="19.2px" y2="48px" /></svg><line stroke="black" x1="50%" x2="7.35294%" y1="19.2px" y2="48px" /><svg width="85.2941%" x="14.7059%" y="48px"><defs /><svg width="100%" x="0" y="0px"><defs /><text text-anchor="middle" x="50%" y="16px">NP</text></svg><svg width="27.5862%" x="0%" y="48px"><defs /><svg width="100%" x="0" y="0px"><defs /><text text-anchor="middle" x="50%" y="16px">NNS</text></svg><svg width="100%" x="0%" y="48px"><defs /><svg width="100%" x="0" y="0px"><defs /><text text-anchor="middle" x="50%" y="16px">horses</text></svg></svg><line stroke="black" x1="50%" x2="50%" y1="19.2px" y2="48px" /></svg><line stroke="black" x1="50%" x2="13.7931%" y1="19.2px" y2="48px" /><svg width="72.4138%" x="27.5862%" y="48px"><defs /><svg width="100%" x="0" y="0px"><defs /><text text-anchor="middle" x="50%" y="16px">CONJP</text></svg><svg width="23.8095%" x="0%" y="48px"><defs /><svg width="100%" x="0" y="0px"><defs /><text text-anchor="middle" x="50%" y="16px">CC</text></svg><svg width="100%" x="0%" y="48px"><defs /><svg width="100%" x="0" y="0px"><defs /><text text-anchor="middle" x="50%" y="16px">but</text></svg></svg><line stroke="black" x1="50%" x2="50%" y1="19.2px" y2="48px" /></svg><line stroke="black" x1="50%" x2="11.9048%" y1="19.2px" y2="48px" /><svg width="28.5714%" x="23.8095%" y="48px"><defs /><svg width="100%" x="0" y="0px"><defs /><text text-anchor="middle" x="50%" y="16px">ADVP</text></svg><svg width="100%" x="0%" y="48px"><defs /><svg width="100%" x="0" y="0px"><defs /><text text-anchor="middle" x="50%" y="16px">RB</text></svg><svg width="100%" x="0%" y="48px"><defs /><svg width="100%" x="0" y="0px"><defs /><text text-anchor="middle" x="50%" y="16px">not</text></svg></svg><line stroke="black" x1="50%" x2="50%" y1="19.2px" y2="48px" /></svg><line stroke="black" x1="50%" x2="50%" y1="19.2px" y2="48px" /></svg><line stroke="black" x1="50%" x2="38.0952%" y1="19.2px" y2="48px" /><svg width="47.619%" x="52.381%" y="48px"><defs /><svg width="100%" x="0" y="0px"><defs /><text text-anchor="middle" x="50%" y="16px">NP</text></svg><svg width="100%" x="0%" y="48px"><defs /><svg width="100%" x="0" y="0px"><defs /><text text-anchor="middle" x="50%" y="16px">NNS</text></svg><svg width="100%" x="0%" y="48px"><defs /><svg width="100%" x="0" y="0px"><defs /><text text-anchor="middle" x="50%" y="16px">unicorns</text></svg></svg><line stroke="black" x1="50%" x2="50%" y1="19.2px" y2="48px" /></svg><line stroke="black" x1="50%" x2="50%" y1="19.2px" y2="48px" /></svg><line stroke="black" x1="50%" x2="76.1905%" y1="19.2px" y2="48px" /></svg><line stroke="black" x1="50%" x2="63.7931%" y1="19.2px" y2="48px" /></svg><line stroke="black" x1="50%" x2="57.3529%" y1="19.2px" y2="48px" /></svg><line stroke="black" x1="50%" x2="58.5366%" y1="19.2px" y2="48px" /></svg><line stroke="black" x1="50%" x2="57.2917%" y1="19.2px" y2="48px" /></svg><line stroke="black" x1="50%" x2="70.3704%" y1="19.2px" y2="48px" /></svg><line stroke="black" x1="50%" x2="52.907%" y1="19.2px" y2="48px" /></svg><line stroke="black" x1="50%" x2="79.8387%" y1="19.2px" y2="48px" /><svg width="2.82258%" x="97.1774%" y="48px"><defs /><svg width="100%" x="0" y="0px"><defs /><text text-anchor="middle" x="50%" y="16px">-RRB-</text></svg><svg width="100%" x="0%" y="48px"><defs /><svg width="100%" x="0" y="0px"><defs /><text text-anchor="middle" x="50%" y="16px">-RRB-</text></svg></svg><line stroke="black" x1="50%" x2="50%" y1="19.2px" y2="48px" /></svg><line stroke="black" x1="50%" x2="98.5887%" y1="19.2px" y2="48px" /></svg><line stroke="black" x1="50%" x2="50%" y1="19.2px" y2="48px" /></svg><line stroke="black" x1="50%" x2="47.1483%" y1="19.2px" y2="48px" /><svg width="5.70342%" x="94.2966%" y="48px"><defs /><svg width="100%" x="0" y="0px"><defs /><text text-anchor="middle" x="50%" y="16px">PP</text></svg><svg width="46.6667%" x="0%" y="48px"><defs /><svg width="100%" x="0" y="0px"><defs /><text text-anchor="middle" x="50%" y="16px">IN</text></svg><svg width="100%" x="0%" y="48px"><defs /><svg width="100%" x="0" y="0px"><defs /><text text-anchor="middle" x="50%" y="16px">among</text></svg></svg><line stroke="black" x1="50%" x2="50%" y1="19.2px" y2="48px" /></svg><line stroke="black" x1="50%" x2="23.3333%" y1="19.2px" y2="48px" /><svg width="53.3333%" x="46.6667%" y="48px"><defs /><svg width="100%" x="0" y="0px"><defs /><text text-anchor="middle" x="50%" y="16px">NP</text></svg><svg width="100%" x="0%" y="48px"><defs /><svg width="100%" x="0" y="0px"><defs /><text text-anchor="middle" x="50%" y="16px">NNS</text></svg><svg width="100%" x="0%" y="48px"><defs /><svg width="100%" x="0" y="0px"><defs /><text text-anchor="middle" x="50%" y="16px">others</text></svg></svg><line stroke="black" x1="50%" x2="50%" y1="19.2px" y2="48px" /></svg><line stroke="black" x1="50%" x2="50%" y1="19.2px" y2="48px" /></svg><line stroke="black" x1="50%" x2="73.3333%" y1="19.2px" y2="48px" /></svg><line stroke="black" x1="50%" x2="97.1483%" y1="19.2px" y2="48px" /></svg><line stroke="black" x1="50%" x2="50%" y1="19.2px" y2="48px" /></svg><line stroke="black" x1="50%" x2="50.5639%" y1="19.2px" y2="48px" /></svg><line stroke="black" x1="50%" x2="55.6667%" y1="19.2px" y2="48px" /></svg><line stroke="black" x1="50%" x2="50.6579%" y1="19.2px" y2="48px" /></svg><line stroke="black" x1="50%" x2="51.1254%" y1="19.2px" y2="48px" /></svg><line stroke="black" x1="50%" x2="50.9464%" y1="19.2px" y2="48px" /></svg><line stroke="black" x1="50%" x2="50%" y1="19.2px" y2="48px" /></svg><line stroke="black" x1="50%" x2="50.7764%" y1="19.2px" y2="48px" /></svg><line stroke="black" x1="50%" x2="50.9146%" y1="19.2px" y2="48px" /></svg><line stroke="black" x1="50%" x2="51.3353%" y1="19.2px" y2="48px" /></svg><line stroke="black" x1="50%" x2="49.5588%" y1="19.2px" y2="48px" /><svg width="0.882353%" x="99.1176%" y="48px"><defs /><svg width="100%" x="0" y="0px"><defs /><text text-anchor="middle" x="50%" y="16px">.</text></svg><svg width="100%" x="0%" y="48px"><defs /><svg width="100%" x="0" y="0px"><defs /><text text-anchor="middle" x="50%" y="16px">.</text></svg></svg><line stroke="black" x1="50%" x2="50%" y1="19.2px" y2="48px" /></svg><line stroke="black" x1="50%" x2="99.5588%" y1="19.2px" y2="48px" /></svg>