<svg baseProfile="full" height="1224px" preserveAspectRatio="xMidYMid meet" style="font-family: times, serif; font-weight: normal; font-style: normal; font-size: 16px;" version="1.1" viewBox="0,0,2768.0,1224.0" width="2768px" xmlns="http://www.w3.org/2000/svg" xmlns:ev="http://www.w3.org/2001/xml-events" xmlns:xlink="http://www.w3.org/1999/xlink"><defs /><svg width="100%" x="0" y="0px"><defs /><text text-anchor="middle" x="50%" y="16px">TOP</text></svg><svg width="98.2659%" x="0%" y="48px"><defs /><svg width="100%" x="0" y="0px"><defs /><text text-anchor="middle" x="50%" y="16px">S</text></svg><svg width="5.29412%" x="0%" y="48px"><defs /><svg width="100%" x="0" y="0px"><defs /><text text-anchor="middle" x="50%" y="16px">PP</text></svg><svg width="38.8889%" x="0%" y="48px"><defs /><svg width="100%" x="0" y="0px"><defs /><text text-anchor="middle" x="50%" y="16px">IN</text></svg><svg width="100%" x="0%" y="48px"><defs /><svg width="100%" x="0" y="0px"><defs /><text text-anchor="middle" x="50%" y="16px">for:0</text></svg></svg><line stroke="black" x1="50%" x2="50%" y1="19.2px" y2="48px" /></svg><line stroke="black" x1="50%" x2="19.4444%" y1="19.2px" y2="48px" /><svg width="61.1111%" x="38.8889%" y="48px"><defs /><svg width="100%" x="0" y="0px"><defs /><text text-anchor="middle" x="50%" y="16px">NP</text></svg><svg width="100%" x="0%" y="48px"><defs /><svg width="100%" x="0" y="0px"><defs /><text text-anchor="middle" x="50%" y="16px">NN</text></svg><svg width="100%" x="0%" y="48px"><defs /><svg width="100%" x="0" y="0px"><defs /><text text-anchor="middle" x="50%" y="16px">example:1</text></svg></svg><line stroke="black" x1="50%" x2="50%" y1="19.2px" y2="48px" /></svg><line stroke="black" x1="50%" x2="50%" y1="19.2px" y2="48px" /></svg><line stroke="black" x1="50%" x2="69.4444%" y1="19.2px" y2="48px" /></svg><line stroke="black" x1="50%" x2="2.64706%" y1="19.2px" y2="48px" /><svg width="94.7059%" x="5.29412%" y="48px"><defs /><svg width="100%" x="0" y="0px"><defs /><text text-anchor="middle" x="50%" y="16px">S</text></svg><svg width="16.4596%" x="0%" y="48px"><defs /><svg width="100%" x="0" y="0px"><defs /><text text-anchor="middle" x="50%" y="16px">NP</text></svg><svg width="13.2075%" x="0%" y="48px"><defs /><svg width="100%" x="0" y="0px"><defs /><text text-anchor="middle" x="50%" y="16px">DT</text></svg><svg width="100%" x="0%" y="48px"><defs /><svg width="100%" x="0" y="0px"><defs /><text text-anchor="middle" x="50%" y="16px">the:2</text></svg></svg><line stroke="black" x1="50%" x2="50%" y1="19.2px" y2="48px" /></svg><line stroke="black" x1="50%" x2="6.60377%" y1="19.2px" y2="48px" /><svg width="86.7925%" x="13.2075%" y="48px"><defs /><svg width="100%" x="0" y="0px"><defs /><text text-anchor="middle" x="50%" y="16px">ADJP</text></svg><svg width="26.087%" x="0%" y="48px"><defs /><svg width="100%" x="0" y="0px"><defs /><text text-anchor="middle" x="50%" y="16px">JJ</text></svg><svg width="100%" x="0%" y="48px"><defs /><svg width="100%" x="0" y="0px"><defs /><text text-anchor="middle" x="50%" y="16px">original:3</text></svg></svg><line stroke="black" x1="50%" x2="50%" y1="19.2px" y2="48px" /></svg><line stroke="black" x1="50%" x2="13.0435%" y1="19.2px" y2="48px" /><svg width="19.5652%" x="26.087%" y="48px"><defs /><svg width="100%" x="0" y="0px"><defs /><text text-anchor="middle" x="50%" y="16px">NP</text></svg><svg width="100%" x="0%" y="48px"><defs /><svg width="100%" x="0" y="0px"><defs /><text text-anchor="middle" x="50%" y="16px">NNP</text></svg><svg width="100%" x="0%" y="48px"><defs /><svg width="100%" x="0" y="0px"><defs /><text text-anchor="middle" x="50%" y="16px">Brown:4</text></svg></svg><line stroke="black" x1="50%" x2="50%" y1="19.2px" y2="48px" /></svg><line stroke="black" x1="50%" x2="50%" y1="19.2px" y2="48px" /></svg><line stroke="black" x1="50%" x2="35.8696%" y1="19.2px" y2="48px" /><svg width="54.3478%" x="45.6522%" y="48px"><defs /><svg width="100%" x="0" y="0px"><defs /><text text-anchor="middle" x="50%" y="16px">CONJP</text></svg><svg width="28%" x="0%" y="48px"><defs /><svg width="100%" x="0" y="0px"><defs /><text text-anchor="middle" x="50%" y="16px">CC</text></svg><svg width="100%" x="0%" y="48px"><defs /><svg width="100%" x="0" y="0px"><defs /><text text-anchor="middle" x="50%" y="16px">and:5</text></svg></svg><line stroke="black" x1="50%" x2="50%" y1="19.2px" y2="48px" /></svg><line stroke="black" x1="50%" x2="14%" y1="19.2px" y2="48px" /><svg width="72%" x="28%" y="48px"><defs /><svg width="100%" x="0" y="0px"><defs /><text text-anchor="middle" x="50%" y="16px">NP</text></svg><svg width="33.3333%" x="0%" y="48px"><defs /><svg width="100%" x="0" y="0px"><defs /><text text-anchor="middle" x="50%" y="16px">NP</text></svg><svg width="100%" x="0%" y="48px"><defs /><svg width="100%" x="0" y="0px"><defs /><text text-anchor="middle" x="50%" y="16px">NNP</text></svg><svg width="100%" x="0%" y="48px"><defs /><svg width="100%" x="0" y="0px"><defs /><text text-anchor="middle" x="50%" y="16px">c5:6</text></svg></svg><line stroke="black" x1="50%" x2="50%" y1="19.2px" y2="48px" /></svg><line stroke="black" x1="50%" x2="50%" y1="19.2px" y2="48px" /></svg><line stroke="black" x1="50%" x2="16.6667%" y1="19.2px" y2="48px" /><svg width="66.6667%" x="33.3333%" y="48px"><defs /><svg width="100%" x="0" y="0px"><defs /><text text-anchor="middle" x="50%" y="16px">NNS</text></svg><svg width="100%" x="0%" y="48px"><defs /><svg width="100%" x="0" y="0px"><defs /><text text-anchor="middle" x="50%" y="16px">tagset+s:7</text></svg></svg><line stroke="black" x1="50%" x2="50%" y1="19.2px" y2="48px" /></svg><line stroke="black" x1="50%" x2="66.6667%" y1="19.2px" y2="48px" /></svg><line stroke="black" x1="50%" x2="64%" y1="19.2px" y2="48px" /></svg><line stroke="black" x1="50%" x2="72.8261%" y1="19.2px" y2="48px" /></svg><line stroke="black" x1="50%" x2="56.6038%" y1="19.2px" y2="48px" /></svg><line stroke="black" x1="50%" x2="8.22981%" y1="19.2px" y2="48px" /><svg width="83.5404%" x="16.4596%" y="48px"><defs /><svg width="100%" x="0" y="0px"><defs /><text text-anchor="middle" x="50%" y="16px">VP</text></svg><svg width="4.08922%" x="0%" y="48px"><defs /><svg width="100%" x="0" y="0px"><defs /><text text-anchor="middle" x="50%" y="16px">VBP</text></svg><svg width="100%" x="0%" y="48px"><defs /><svg width="100%" x="0" y="0px"><defs /><text text-anchor="middle" x="50%" y="16px">include:8</text></svg></svg><line stroke="black" x1="50%" x2="50%" y1="19.2px" y2="48px" /></svg><line stroke="black" x1="50%" x2="2.04461%" y1="19.2px" y2="48px" /><svg width="95.9108%" x="4.08922%" y="48px"><defs /><svg width="100%" x="0" y="0px"><defs /><text text-anchor="middle" x="50%" y="16px">NP</text></svg><svg width="1.93798%" x="0%" y="48px"><defs /><svg width="100%" x="0" y="0px"><defs /><text text-anchor="middle" x="50%" y="16px">DT</text></svg><svg width="100%" x="0%" y="48px"><defs /><svg width="100%" x="0" y="0px"><defs /><text text-anchor="middle" x="50%" y="16px">a:9</text></svg></svg><line stroke="black" x1="50%" x2="50%" y1="19.2px" y2="48px" /></svg><line stroke="black" x1="50%" x2="0.968992%" y1="19.2px" y2="48px" /><svg width="98.062%" x="1.93798%" y="48px"><defs /><svg width="100%" x="0" y="0px"><defs /><text text-anchor="middle" x="50%" y="16px">ADJP</text></svg><svg width="5.13834%" x="0%" y="48px"><defs /><svg width="100%" x="0" y="0px"><defs /><text text-anchor="middle" x="50%" y="16px">JJ</text></svg><svg width="100%" x="0%" y="48px"><defs /><svg width="100%" x="0" y="0px"><defs /><text text-anchor="middle" x="50%" y="16px">separate:10</text></svg></svg><line stroke="black" x1="50%" x2="50%" y1="19.2px" y2="48px" /></svg><line stroke="black" x1="50%" x2="2.56917%" y1="19.2px" y2="48px" /><svg width="94.8617%" x="5.13834%" y="48px"><defs /><svg width="100%" x="0" y="0px"><defs /><text text-anchor="middle" x="50%" y="16px">NP</text></svg><svg width="3.33333%" x="0%" y="48px"><defs /><svg width="100%" x="0" y="0px"><defs /><text text-anchor="middle" x="50%" y="16px">NN</text></svg><svg width="100%" x="0%" y="48px"><defs /><svg width="100%" x="0" y="0px"><defs /><text text-anchor="middle" x="50%" y="16px">tag:11</text></svg></svg><line stroke="black" x1="50%" x2="50%" y1="19.2px" y2="48px" /></svg><line stroke="black" x1="50%" x2="1.66667%" y1="19.2px" y2="48px" /><svg width="96.6667%" x="3.33333%" y="48px"><defs /><svg width="100%" x="0" y="0px"><defs /><text text-anchor="middle" x="50%" y="16px">PP</text></svg><svg width="7.32759%" x="0%" y="48px"><defs /><svg width="100%" x="0" y="0px"><defs /><text text-anchor="middle" x="50%" y="16px">PP</text></svg><svg width="47.0588%" x="0%" y="48px"><defs /><svg width="100%" x="0" y="0px"><defs /><text text-anchor="middle" x="50%" y="16px">IN</text></svg><svg width="100%" x="0%" y="48px"><defs /><svg width="100%" x="0" y="0px"><defs /><text text-anchor="middle" x="50%" y="16px">for:12</text></svg></svg><line stroke="black" x1="50%" x2="50%" y1="19.2px" y2="48px" /></svg><line stroke="black" x1="50%" x2="23.5294%" y1="19.2px" y2="48px" /><svg width="52.9412%" x="47.0588%" y="48px"><defs /><svg width="100%" x="0" y="0px"><defs /><text text-anchor="middle" x="50%" y="16px">DT</text></svg><svg width="100%" x="0%" y="48px"><defs /><svg width="100%" x="0" y="0px"><defs /><text text-anchor="middle" x="50%" y="16px">each:13</text></svg></svg><line stroke="black" x1="50%" x2="50%" y1="19.2px" y2="48px" /></svg><line stroke="black" x1="50%" x2="73.5294%" y1="19.2px" y2="48px" /></svg><line stroke="black" x1="50%" x2="3.66379%" y1="19.2px" y2="48px" /><svg width="92.6724%" x="7.32759%" y="48px"><defs /><svg width="100%" x="0" y="0px"><defs /><text text-anchor="middle" x="50%" y="16px">PP</text></svg><svg width="3.25581%" x="0%" y="48px"><defs /><svg width="100%" x="0" y="0px"><defs /><text text-anchor="middle" x="50%" y="16px">IN</text></svg><svg width="100%" x="0%" y="48px"><defs /><svg width="100%" x="0" y="0px"><defs /><text text-anchor="middle" x="50%" y="16px">of:14</text></svg></svg><line stroke="black" x1="50%" x2="50%" y1="19.2px" y2="48px" /></svg><line stroke="black" x1="50%" x2="1.62791%" y1="19.2px" y2="48px" /><svg width="96.7442%" x="3.25581%" y="48px"><defs /><svg width="100%" x="0" y="0px"><defs /><text text-anchor="middle" x="50%" y="16px">NP</text></svg><svg width="3.84615%" x="0%" y="48px"><defs /><svg width="100%" x="0" y="0px"><defs /><text text-anchor="middle" x="50%" y="16px">DT</text></svg><svg width="100%" x="0%" y="48px"><defs /><svg width="100%" x="0" y="0px"><defs /><text text-anchor="middle" x="50%" y="16px">the:15</text></svg></svg><line stroke="black" x1="50%" x2="50%" y1="19.2px" y2="48px" /></svg><line stroke="black" x1="50%" x2="1.92308%" y1="19.2px" y2="48px" /><svg width="96.1538%" x="3.84615%" y="48px"><defs /><svg width="100%" x="0" y="0px"><defs /><text text-anchor="middle" x="50%" y="16px">ADJP</text></svg><svg width="7%" x="0%" y="48px"><defs /><svg width="100%" x="0" y="0px"><defs /><text text-anchor="middle" x="50%" y="16px">JJ</text></svg><svg width="100%" x="0%" y="48px"><defs /><svg width="100%" x="0" y="0px"><defs /><text text-anchor="middle" x="50%" y="16px">different:16</text></svg></svg><line stroke="black" x1="50%" x2="50%" y1="19.2px" y2="48px" /></svg><line stroke="black" x1="50%" x2="3.5%" y1="19.2px" y2="48px" /><svg width="93%" x="7%" y="48px"><defs /><svg width="100%" x="0" y="0px"><defs /><text text-anchor="middle" x="50%" y="16px">NP</text></svg><svg width="5.91398%" x="0%" y="48px"><defs /><svg width="100%" x="0" y="0px"><defs /><text text-anchor="middle" x="50%" y="16px">NNS</text></svg><svg width="100%" x="0%" y="48px"><defs /><svg width="100%" x="0" y="0px"><defs /><text text-anchor="middle" x="50%" y="16px">form+s:17</text></svg></svg><line stroke="black" x1="50%" x2="50%" y1="19.2px" y2="48px" /></svg><line stroke="black" x1="50%" x2="2.95699%" y1="19.2px" y2="48px" /><svg width="94.086%" x="5.91398%" y="48px"><defs /><svg width="100%" x="0" y="0px"><defs /><text text-anchor="middle" x="50%" y="16px">PP</text></svg><svg width="4%" x="0%" y="48px"><defs /><svg width="100%" x="0" y="0px"><defs /><text text-anchor="middle" x="50%" y="16px">IN</text></svg><svg width="100%" x="0%" y="48px"><defs /><svg width="100%" x="0" y="0px"><defs /><text text-anchor="middle" x="50%" y="16px">of:18</text></svg></svg><line stroke="black" x1="50%" x2="50%" y1="19.2px" y2="48px" /></svg><line stroke="black" x1="50%" x2="2%" y1="19.2px" y2="48px" /><svg width="96%" x="4%" y="48px"><defs /><svg width="100%" x="0" y="0px"><defs /><text text-anchor="middle" x="50%" y="16px">NP</text></svg><svg width="4.7619%" x="0%" y="48px"><defs /><svg width="100%" x="0" y="0px"><defs /><text text-anchor="middle" x="50%" y="16px">DT</text></svg><svg width="100%" x="0%" y="48px"><defs /><svg width="100%" x="0" y="0px"><defs /><text text-anchor="middle" x="50%" y="16px">the:19</text></svg></svg><line stroke="black" x1="50%" x2="50%" y1="19.2px" y2="48px" /></svg><line stroke="black" x1="50%" x2="2.38095%" y1="19.2px" y2="48px" /><svg width="95.2381%" x="4.7619%" y="48px"><defs /><svg width="100%" x="0" y="0px"><defs /><text text-anchor="middle" x="50%" y="16px">NP</text></svg><svg width="6.875%" x="0%" y="48px"><defs /><svg width="100%" x="0" y="0px"><defs /><text text-anchor="middle" x="50%" y="16px">NNS</text></svg><svg width="100%" x="0%" y="48px"><defs /><svg width="100%" x="0" y="0px"><defs /><text text-anchor="middle" x="50%" y="16px">verb+s:20</text></svg></svg><line stroke="black" x1="50%" x2="50%" y1="19.2px" y2="48px" /></svg><line stroke="black" x1="50%" x2="3.4375%" y1="19.2px" y2="48px" /><svg width="93.125%" x="6.875%" y="48px"><defs /><svg width="100%" x="0" y="0px"><defs /><text text-anchor="middle" x="50%" y="16px">LST</text></svg><svg width="88.5906%" x="0%" y="48px"><defs /><svg width="100%" x="0" y="0px"><defs /><text text-anchor="middle" x="50%" y="16px">LST</text></svg><svg width="90.1515%" x="0%" y="48px"><defs /><svg width="100%" x="0" y="0px"><defs /><text text-anchor="middle" x="50%" y="16px">LST</text></svg><svg width="5.88235%" x="0%" y="48px"><defs /><svg width="100%" x="0" y="0px"><defs /><text text-anchor="middle" x="50%" y="16px">VB</text></svg><svg width="100%" x="0%" y="48px"><defs /><svg width="100%" x="0" y="0px"><defs /><text text-anchor="middle" x="50%" y="16px">do:21</text></svg></svg><line stroke="black" x1="50%" x2="50%" y1="19.2px" y2="48px" /></svg><line stroke="black" x1="50%" x2="2.94118%" y1="19.2px" y2="48px" /><svg width="94.1176%" x="5.88235%" y="48px"><defs /><svg width="100%" x="0" y="0px"><defs /><text text-anchor="middle" x="50%" y="16px">PRN</text></svg><svg width="100%" x="0%" y="48px"><defs /><svg width="100%" x="0" y="0px"><defs /><text text-anchor="middle" x="50%" y="16px">-LRB-</text></svg><svg width="2.67857%" x="0%" y="48px"><defs /><svg width="100%" x="0" y="0px"><defs /><text text-anchor="middle" x="50%" y="16px">\</text></svg></svg><line stroke="black" x1="50%" x2="1.33929%" y1="19.2px" y2="48px" /><svg width="4.46429%" x="2.67857%" y="48px"><defs /><svg width="100%" x="0" y="0px"><defs /><text text-anchor="middle" x="50%" y="16px">:22</text></svg></svg><line stroke="black" x1="50%" x2="4.91071%" y1="19.2px" y2="48px" /><svg width="82.1429%" x="7.14286%" y="48px"><defs /><svg width="100%" x="0" y="0px"><defs /><text text-anchor="middle" x="50%" y="16px">ADVP</text></svg><svg width="54.3478%" x="0%" y="48px"><defs /><svg width="100%" x="0" y="0px"><defs /><text text-anchor="middle" x="50%" y="16px">ADVP</text></svg><svg width="18%" x="0%" y="48px"><defs /><svg width="100%" x="0" y="0px"><defs /><text text-anchor="middle" x="50%" y="16px">RB</text></svg><svg width="100%" x="0%" y="48px"><defs /><svg width="100%" x="0" y="0px"><defs /><text text-anchor="middle" x="50%" y="16px">e.g.:23</text></svg></svg><line stroke="black" x1="50%" x2="50%" y1="19.2px" y2="48px" /></svg><line stroke="black" x1="50%" x2="9%" y1="19.2px" y2="48px" /><svg width="46%" x="18%" y="48px"><defs /><svg width="100%" x="0" y="0px"><defs /><text text-anchor="middle" x="50%" y="16px">NP</text></svg><svg width="30.4348%" x="0%" y="48px"><defs /><svg width="100%" x="0" y="0px"><defs /><text text-anchor="middle" x="50%" y="16px">NNP</text></svg><svg width="100%" x="0%" y="48px"><defs /><svg width="100%" x="0" y="0px"><defs /><text text-anchor="middle" x="50%" y="16px">c5:24</text></svg></svg><line stroke="black" x1="50%" x2="50%" y1="19.2px" y2="48px" /></svg><line stroke="black" x1="50%" x2="15.2174%" y1="19.2px" y2="48px" /><svg width="69.5652%" x="30.4348%" y="48px"><defs /><svg width="100%" x="0" y="0px"><defs /><text text-anchor="middle" x="50%" y="16px">NP</text></svg><svg width="50%" x="0%" y="48px"><defs /><svg width="100%" x="0" y="0px"><defs /><text text-anchor="middle" x="50%" y="16px">NN</text></svg><svg width="100%" x="0%" y="48px"><defs /><svg width="100%" x="0" y="0px"><defs /><text text-anchor="middle" x="50%" y="16px">tag:25</text></svg></svg><line stroke="black" x1="50%" x2="50%" y1="19.2px" y2="48px" /></svg><line stroke="black" x1="50%" x2="25%" y1="19.2px" y2="48px" /><svg width="50%" x="50%" y="48px"><defs /><svg width="100%" x="0" y="0px"><defs /><text text-anchor="middle" x="50%" y="16px">NN</text></svg><svg width="100%" x="0%" y="48px"><defs /><svg width="100%" x="0" y="0px"><defs /><text text-anchor="middle" x="50%" y="16px">Vdd:26</text></svg></svg><line stroke="black" x1="50%" x2="50%" y1="19.2px" y2="48px" /></svg><line stroke="black" x1="50%" x2="75%" y1="19.2px" y2="48px" /></svg><line stroke="black" x1="50%" x2="65.2174%" y1="19.2px" y2="48px" /></svg><line stroke="black" x1="50%" x2="41%" y1="19.2px" y2="48px" /><svg width="36%" x="64%" y="48px"><defs /><svg width="100%" x="0" y="0px"><defs /><text text-anchor="middle" x="50%" y="16px">PP</text></svg><svg width="44.4444%" x="0%" y="48px"><defs /><svg width="100%" x="0" y="0px"><defs /><text text-anchor="middle" x="50%" y="16px">IN</text></svg><svg width="100%" x="0%" y="48px"><defs /><svg width="100%" x="0" y="0px"><defs /><text text-anchor="middle" x="50%" y="16px">for:27</text></svg></svg><line stroke="black" x1="50%" x2="50%" y1="19.2px" y2="48px" /></svg><line stroke="black" x1="50%" x2="22.2222%" y1="19.2px" y2="48px" /><svg width="55.5556%" x="44.4444%" y="48px"><defs /><svg width="100%" x="0" y="0px"><defs /><text text-anchor="middle" x="50%" y="16px">VBN</text></svg><svg width="100%" x="0%" y="48px"><defs /><svg width="100%" x="0" y="0px"><defs /><text text-anchor="middle" x="50%" y="16px">do+ed:28</text></svg></svg><line stroke="black" x1="50%" x2="50%" y1="19.2px" y2="48px" /></svg><line stroke="black" x1="50%" x2="72.2222%" y1="19.2px" y2="48px" /></svg><line stroke="black" x1="50%" x2="82%" y1="19.2px" y2="48px" /></svg><line stroke="black" x1="50%" x2="27.1739%" y1="19.2px" y2="48px" /><svg width="45.6522%" x="54.3478%" y="48px"><defs /><svg width="100%" x="0" y="0px"><defs /><text text-anchor="middle" x="50%" y="16px">CONJP</text></svg><svg width="19.0476%" x="0%" y="48px"><defs /><svg width="100%" x="0" y="0px"><defs /><text text-anchor="middle" x="50%" y="16px">CC</text></svg><svg width="100%" x="0%" y="48px"><defs /><svg width="100%" x="0" y="0px"><defs /><text text-anchor="middle" x="50%" y="16px">and:29</text></svg></svg><line stroke="black" x1="50%" x2="50%" y1="19.2px" y2="48px" /></svg><line stroke="black" x1="50%" x2="9.52381%" y1="19.2px" y2="48px" /><svg width="38.0952%" x="19.0476%" y="48px"><defs /><svg width="100%" x="0" y="0px"><defs /><text text-anchor="middle" x="50%" y="16px">NP</text></svg><svg width="50%" x="0%" y="48px"><defs /><svg width="100%" x="0" y="0px"><defs /><text text-anchor="middle" x="50%" y="16px">NN</text></svg><svg width="100%" x="0%" y="48px"><defs /><svg width="100%" x="0" y="0px"><defs /><text text-anchor="middle" x="50%" y="16px">Vdg:30</text></svg></svg><line stroke="black" x1="50%" x2="50%" y1="19.2px" y2="48px" /></svg><line stroke="black" x1="50%" x2="25%" y1="19.2px" y2="48px" /><svg width="50%" x="50%" y="48px"><defs /><svg width="100%" x="0" y="0px"><defs /><text text-anchor="middle" x="50%" y="16px">NN</text></svg><svg width="100%" x="0%" y="48px"><defs /><svg width="100%" x="0" y="0px"><defs /><text text-anchor="middle" x="50%" y="16px">tag:31</text></svg></svg><line stroke="black" x1="50%" x2="50%" y1="19.2px" y2="48px" /></svg><line stroke="black" x1="50%" x2="75%" y1="19.2px" y2="48px" /></svg><line stroke="black" x1="50%" x2="38.0952%" y1="19.2px" y2="48px" /><svg width="42.8571%" x="57.1429%" y="48px"><defs /><svg width="100%" x="0" y="0px"><defs /><text text-anchor="middle" x="50%" y="16px">PP</text></svg><svg width="44.4444%" x="0%" y="48px"><defs /><svg width="100%" x="0" y="0px"><defs /><text text-anchor="middle" x="50%" y="16px">IN</text></svg><svg width="100%" x="0%" y="48px"><defs /><svg width="100%" x="0" y="0px"><defs /><text text-anchor="middle" x="50%" y="16px">for:32</text></svg></svg><line stroke="black" x1="50%" x2="50%" y1="19.2px" y2="48px" /></svg><line stroke="black" x1="50%" x2="22.2222%" y1="19.2px" y2="48px" /><svg width="55.5556%" x="44.4444%" y="48px"><defs /><svg width="100%" x="0" y="0px"><defs /><text text-anchor="middle" x="50%" y="16px">VBG</text></svg><svg width="100%" x="0%" y="48px"><defs /><svg width="100%" x="0" y="0px"><defs /><text text-anchor="middle" x="50%" y="16px">doing:33</text></svg></svg><line stroke="black" x1="50%" x2="50%" y1="19.2px" y2="48px" /></svg><line stroke="black" x1="50%" x2="72.2222%" y1="19.2px" y2="48px" /></svg><line stroke="black" x1="50%" x2="78.5714%" y1="19.2px" y2="48px" /></svg><line stroke="black" x1="50%" x2="77.1739%" y1="19.2px" y2="48px" /></svg><line stroke="black" x1="50%" x2="48.2143%" y1="19.2px" y2="48px" /><svg width="6.25%" x="89.2857%" y="48px"><defs /><svg width="100%" x="0" y="0px"><defs /><text text-anchor="middle" x="50%" y="16px">-RRB-</text></svg><svg width="100%" x="0%" y="48px"><defs /><svg width="100%" x="0" y="0px"><defs /><text text-anchor="middle" x="50%" y="16px">\</text></svg></svg><line stroke="black" x1="50%" x2="50%" y1="19.2px" y2="48px" /></svg><line stroke="black" x1="50%" x2="92.4107%" y1="19.2px" y2="48px" /><svg width="4.46429%" x="95.5357%" y="48px"><defs /><svg width="100%" x="0" y="0px"><defs /><text text-anchor="middle" x="50%" y="16px">:34</text></svg></svg><line stroke="black" x1="50%" x2="97.7679%" y1="19.2px" y2="48px" /></svg><line stroke="black" x1="50%" x2="50%" y1="19.2px" y2="48px" /></svg><line stroke="black" x1="50%" x2="52.9412%" y1="19.2px" y2="48px" /></svg><line stroke="black" x1="50%" x2="45.0758%" y1="19.2px" y2="48px" /><svg width="4.54545%" x="90.1515%" y="48px"><defs /><svg width="100%" x="0" y="0px"><defs /><text text-anchor="middle" x="50%" y="16px">,</text></svg><svg width="100%" x="0%" y="48px"><defs /><svg width="100%" x="0" y="0px"><defs /><text text-anchor="middle" x="50%" y="16px">,:35</text></svg></svg><line stroke="black" x1="50%" x2="50%" y1="19.2px" y2="48px" /></svg><line stroke="black" x1="50%" x2="92.4242%" y1="19.2px" y2="48px" /><svg width="5.30303%" x="94.697%" y="48px"><defs /><svg width="100%" x="0" y="0px"><defs /><text text-anchor="middle" x="50%" y="16px">VB</text></svg><svg width="100%" x="0%" y="48px"><defs /><svg width="100%" x="0" y="0px"><defs /><text text-anchor="middle" x="50%" y="16px">be:36</text></svg></svg><line stroke="black" x1="50%" x2="50%" y1="19.2px" y2="48px" /></svg><line stroke="black" x1="50%" x2="97.3485%" y1="19.2px" y2="48px" /></svg><line stroke="black" x1="50%" x2="44.2953%" y1="19.2px" y2="48px" /><svg width="11.4094%" x="88.5906%" y="48px"><defs /><svg width="100%" x="0" y="0px"><defs /><text text-anchor="middle" x="50%" y="16px">CONJP</text></svg><svg width="47.0588%" x="0%" y="48px"><defs /><svg width="100%" x="0" y="0px"><defs /><text text-anchor="middle" x="50%" y="16px">CC</text></svg><svg width="100%" x="0%" y="48px"><defs /><svg width="100%" x="0" y="0px"><defs /><text text-anchor="middle" x="50%" y="16px">and:37</text></svg></svg><line stroke="black" x1="50%" x2="50%" y1="19.2px" y2="48px" /></svg><line stroke="black" x1="50%" x2="23.5294%" y1="19.2px" y2="48px" /><svg width="52.9412%" x="47.0588%" y="48px"><defs /><svg width="100%" x="0" y="0px"><defs /><text text-anchor="middle" x="50%" y="16px">VB</text></svg><svg width="100%" x="0%" y="48px"><defs /><svg width="100%" x="0" y="0px"><defs /><text text-anchor="middle" x="50%" y="16px">have:38</text></svg></svg><line stroke="black" x1="50%" x2="50%" y1="19.2px" y2="48px" /></svg><line stroke="black" x1="50%" x2="73.5294%" y1="19.2px" y2="48px" /></svg><line stroke="black" x1="50%" x2="94.2953%" y1="19.2px" y2="48px" /></svg><line stroke="black" x1="50%" x2="53.4375%" y1="19.2px" y2="48px" /></svg><line stroke="black" x1="50%" x2="52.381%" y1="19.2px" y2="48px" /></svg><line stroke="black" x1="50%" x2="52%" y1="19.2px" y2="48px" /></svg><line stroke="black" x1="50%" x2="52.957%" y1="19.2px" y2="48px" /></svg><line stroke="black" x1="50%" x2="53.5%" y1="19.2px" y2="48px" /></svg><line stroke="black" x1="50%" x2="51.9231%" y1="19.2px" y2="48px" /></svg><line stroke="black" x1="50%" x2="51.6279%" y1="19.2px" y2="48px" /></svg><line stroke="black" x1="50%" x2="53.6638%" y1="19.2px" y2="48px" /></svg><line stroke="black" x1="50%" x2="51.6667%" y1="19.2px" y2="48px" /></svg><line stroke="black" x1="50%" x2="52.5692%" y1="19.2px" y2="48px" /></svg><line stroke="black" x1="50%" x2="50.969%" y1="19.2px" y2="48px" /></svg><line stroke="black" x1="50%" x2="52.0446%" y1="19.2px" y2="48px" /></svg><line stroke="black" x1="50%" x2="58.2298%" y1="19.2px" y2="48px" /></svg><line stroke="black" x1="50%" x2="52.6471%" y1="19.2px" y2="48px" /></svg><line stroke="black" x1="50%" x2="49.1329%" y1="19.2px" y2="48px" /><svg width="1.7341%" x="98.2659%" y="48px"><defs /><svg width="100%" x="0" y="0px"><defs /><text text-anchor="middle" x="50%" y="16px">.</text></svg><svg width="100%" x="0%" y="48px"><defs /><svg width="100%" x="0" y="0px"><defs /><text text-anchor="middle" x="50%" y="16px">.:39</text></svg></svg><line stroke="black" x1="50%" x2="50%" y1="19.2px" y2="48px" /></svg><line stroke="black" x1="50%" x2="99.1329%" y1="19.2px" y2="48px" /></svg>