<svg baseProfile="full" height="360px" preserveAspectRatio="xMidYMid meet" style="font-family: times, serif; font-weight: normal; font-style: normal; font-size: 16px;" version="1.1" viewBox="0,0,456.0,360.0" width="456px" xmlns="http://www.w3.org/2000/svg" xmlns:ev="http://www.w3.org/2001/xml-events" xmlns:xlink="http://www.w3.org/1999/xlink"><defs /><svg width="100%" x="0" y="0px"><defs /><text text-anchor="middle" x="50%" y="16px">TOP</text></svg><svg width="94.7368%" x="0%" y="48px"><defs /><svg width="100%" x="0" y="0px"><defs /><text text-anchor="middle" x="50%" y="16px">S</text></svg><svg width="38.8889%" x="0%" y="48px"><defs /><svg width="100%" x="0" y="0px"><defs /><text text-anchor="middle" x="50%" y="16px">NP</text></svg><svg width="76.1905%" x="0%" y="48px"><defs /><svg width="100%" x="0" y="0px"><defs /><text text-anchor="middle" x="50%" y="16px">ADVP</text></svg><svg width="25%" x="0%" y="48px"><defs /><svg width="100%" x="0" y="0px"><defs /><text text-anchor="middle" x="50%" y="16px">RB</text></svg><svg width="100%" x="0%" y="48px"><defs /><svg width="100%" x="0" y="0px"><defs /><text text-anchor="middle" x="50%" y="16px">At</text></svg></svg><line stroke="black" x1="50%" x2="50%" y1="19.2px" y2="48px" /></svg><line stroke="black" x1="50%" x2="12.5%" y1="19.2px" y2="48px" /><svg width="75%" x="25%" y="48px"><defs /><svg width="100%" x="0" y="0px"><defs /><text text-anchor="middle" x="50%" y="16px">ADVP</text></svg><svg width="58.3333%" x="0%" y="48px"><defs /><svg width="100%" x="0" y="0px"><defs /><text text-anchor="middle" x="50%" y="16px">RBS</text></svg><svg width="100%" x="0%" y="48px"><defs /><svg width="100%" x="0" y="0px"><defs /><text text-anchor="middle" x="50%" y="16px">least</text></svg></svg><line stroke="black" x1="50%" x2="50%" y1="19.2px" y2="48px" /></svg><line stroke="black" x1="50%" x2="29.1667%" y1="19.2px" y2="48px" /><svg width="41.6667%" x="58.3333%" y="48px"><defs /><svg width="100%" x="0" y="0px"><defs /><text text-anchor="middle" x="50%" y="16px">CD</text></svg><svg width="100%" x="0%" y="48px"><defs /><svg width="100%" x="0" y="0px"><defs /><text text-anchor="middle" x="50%" y="16px">two</text></svg></svg><line stroke="black" x1="50%" x2="50%" y1="19.2px" y2="48px" /></svg><line stroke="black" x1="50%" x2="79.1667%" y1="19.2px" y2="48px" /></svg><line stroke="black" x1="50%" x2="62.5%" y1="19.2px" y2="48px" /></svg><line stroke="black" x1="50%" x2="38.0952%" y1="19.2px" y2="48px" /><svg width="23.8095%" x="76.1905%" y="48px"><defs /><svg width="100%" x="0" y="0px"><defs /><text text-anchor="middle" x="50%" y="16px">NNS</text></svg><svg width="100%" x="0%" y="48px"><defs /><svg width="100%" x="0" y="0px"><defs /><text text-anchor="middle" x="50%" y="16px">men</text></svg></svg><line stroke="black" x1="50%" x2="50%" y1="19.2px" y2="48px" /></svg><line stroke="black" x1="50%" x2="88.0952%" y1="19.2px" y2="48px" /></svg><line stroke="black" x1="50%" x2="19.4444%" y1="19.2px" y2="48px" /><svg width="61.1111%" x="38.8889%" y="48px"><defs /><svg width="100%" x="0" y="0px"><defs /><text text-anchor="middle" x="50%" y="16px">VP</text></svg><svg width="33.3333%" x="0%" y="48px"><defs /><svg width="100%" x="0" y="0px"><defs /><text text-anchor="middle" x="50%" y="16px">VP</text></svg><svg width="100%" x="0%" y="48px"><defs /><svg width="100%" x="0" y="0px"><defs /><text text-anchor="middle" x="50%" y="16px">V</text></svg><svg width="63.6364%" x="0%" y="48px"><defs /><svg width="100%" x="0" y="0px"><defs /><text text-anchor="middle" x="50%" y="16px">VBD</text></svg><svg width="100%" x="0%" y="48px"><defs /><svg width="100%" x="0" y="0px"><defs /><text text-anchor="middle" x="50%" y="16px">broke</text></svg></svg><line stroke="black" x1="50%" x2="50%" y1="19.2px" y2="48px" /></svg><line stroke="black" x1="50%" x2="31.8182%" y1="19.2px" y2="48px" /><svg width="36.3636%" x="63.6364%" y="48px"><defs /><svg width="100%" x="0" y="0px"><defs /><text text-anchor="middle" x="50%" y="16px">RP</text></svg><svg width="100%" x="0%" y="48px"><defs /><svg width="100%" x="0" y="0px"><defs /><text text-anchor="middle" x="50%" y="16px">in</text></svg></svg><line stroke="black" x1="50%" x2="50%" y1="19.2px" y2="48px" /></svg><line stroke="black" x1="50%" x2="81.8182%" y1="19.2px" y2="48px" /></svg><line stroke="black" x1="50%" x2="50%" y1="19.2px" y2="48px" /></svg><line stroke="black" x1="50%" x2="16.6667%" y1="19.2px" y2="48px" /><svg width="66.6667%" x="33.3333%" y="48px"><defs /><svg width="100%" x="0" y="0px"><defs /><text text-anchor="middle" x="50%" y="16px">CONJP</text></svg><svg width="22.7273%" x="0%" y="48px"><defs /><svg width="100%" x="0" y="0px"><defs /><text text-anchor="middle" x="50%" y="16px">CC</text></svg><svg width="100%" x="0%" y="48px"><defs /><svg width="100%" x="0" y="0px"><defs /><text text-anchor="middle" x="50%" y="16px">and</text></svg></svg><line stroke="black" x1="50%" x2="50%" y1="19.2px" y2="48px" /></svg><line stroke="black" x1="50%" x2="11.3636%" y1="19.2px" y2="48px" /><svg width="77.2727%" x="22.7273%" y="48px"><defs /><svg width="100%" x="0" y="0px"><defs /><text text-anchor="middle" x="50%" y="16px">VP</text></svg><svg width="41.1765%" x="0%" y="48px"><defs /><svg width="100%" x="0" y="0px"><defs /><text text-anchor="middle" x="50%" y="16px">VBD</text></svg><svg width="100%" x="0%" y="48px"><defs /><svg width="100%" x="0" y="0px"><defs /><text text-anchor="middle" x="50%" y="16px">stole</text></svg></svg><line stroke="black" x1="50%" x2="50%" y1="19.2px" y2="48px" /></svg><line stroke="black" x1="50%" x2="20.5882%" y1="19.2px" y2="48px" /><svg width="58.8235%" x="41.1765%" y="48px"><defs /><svg width="100%" x="0" y="0px"><defs /><text text-anchor="middle" x="50%" y="16px">NP</text></svg><svg width="60%" x="0%" y="48px"><defs /><svg width="100%" x="0" y="0px"><defs /><text text-anchor="middle" x="50%" y="16px">PRP$</text></svg><svg width="100%" x="0%" y="48px"><defs /><svg width="100%" x="0" y="0px"><defs /><text text-anchor="middle" x="50%" y="16px">my</text></svg></svg><line stroke="black" x1="50%" x2="50%" y1="19.2px" y2="48px" /></svg><line stroke="black" x1="50%" x2="30%" y1="19.2px" y2="48px" /><svg width="40%" x="60%" y="48px"><defs /><svg width="100%" x="0" y="0px"><defs /><text text-anchor="middle" x="50%" y="16px">NN</text></svg><svg width="100%" x="0%" y="48px"><defs /><svg width="100%" x="0" y="0px"><defs /><text text-anchor="middle" x="50%" y="16px">TV</text></svg></svg><line stroke="black" x1="50%" x2="50%" y1="19.2px" y2="48px" /></svg><line stroke="black" x1="50%" x2="80%" y1="19.2px" y2="48px" /></svg><line stroke="black" x1="50%" x2="70.5882%" y1="19.2px" y2="48px" /></svg><line stroke="black" x1="50%" x2="61.3636%" y1="19.2px" y2="48px" /></svg><line stroke="black" x1="50%" x2="66.6667%" y1="19.2px" y2="48px" /></svg><line stroke="black" x1="50%" x2="69.4444%" y1="19.2px" y2="48px" /></svg><line stroke="black" x1="50%" x2="47.3684%" y1="19.2px" y2="48px" /><svg width="5.26316%" x="94.7368%" y="48px"><defs /><svg width="100%" x="0" y="0px"><defs /><text text-anchor="middle" x="50%" y="16px">.</text></svg><svg width="100%" x="0%" y="48px"><defs /><svg width="100%" x="0" y="0px"><defs /><text text-anchor="middle" x="50%" y="16px">.</text></svg></svg><line stroke="black" x1="50%" x2="50%" y1="19.2px" y2="48px" /></svg><line stroke="black" x1="50%" x2="97.3684%" y1="19.2px" y2="48px" /></svg>