<svg baseProfile="full" height="360px" preserveAspectRatio="xMidYMid meet" style="font-family: times, serif; font-weight: normal; font-style: normal; font-size: 16px;" version="1.1" viewBox="0,0,480.0,360.0" width="480px" xmlns="http://www.w3.org/2000/svg" xmlns:ev="http://www.w3.org/2001/xml-events" xmlns:xlink="http://www.w3.org/1999/xlink"><defs /><svg width="100%" x="0" y="0px"><defs /><text text-anchor="middle" x="50%" y="16px">TOP</text></svg><svg width="95%" x="0%" y="48px"><defs /><svg width="100%" x="0" y="0px"><defs /><text text-anchor="middle" x="50%" y="16px">S</text></svg><svg width="29.8246%" x="0%" y="48px"><defs /><svg width="100%" x="0" y="0px"><defs /><text text-anchor="middle" x="50%" y="16px">NP</text></svg><svg width="29.4118%" x="0%" y="48px"><defs /><svg width="100%" x="0" y="0px"><defs /><text text-anchor="middle" x="50%" y="16px">NP</text></svg><svg width="100%" x="0%" y="48px"><defs /><svg width="100%" x="0" y="0px"><defs /><text text-anchor="middle" x="50%" y="16px">NNP</text></svg><svg width="100%" x="0%" y="48px"><defs /><svg width="100%" x="0" y="0px"><defs /><text text-anchor="middle" x="50%" y="16px">Kim</text></svg></svg><line stroke="black" x1="50%" x2="50%" y1="19.2px" y2="48px" /></svg><line stroke="black" x1="50%" x2="50%" y1="19.2px" y2="48px" /></svg><line stroke="black" x1="50%" x2="14.7059%" y1="19.2px" y2="48px" /><svg width="70.5882%" x="29.4118%" y="48px"><defs /><svg width="100%" x="0" y="0px"><defs /><text text-anchor="middle" x="50%" y="16px">CONJP</text></svg><svg width="41.6667%" x="0%" y="48px"><defs /><svg width="100%" x="0" y="0px"><defs /><text text-anchor="middle" x="50%" y="16px">CC</text></svg><svg width="100%" x="0%" y="48px"><defs /><svg width="100%" x="0" y="0px"><defs /><text text-anchor="middle" x="50%" y="16px">and</text></svg></svg><line stroke="black" x1="50%" x2="50%" y1="19.2px" y2="48px" /></svg><line stroke="black" x1="50%" x2="20.8333%" y1="19.2px" y2="48px" /><svg width="58.3333%" x="41.6667%" y="48px"><defs /><svg width="100%" x="0" y="0px"><defs /><text text-anchor="middle" x="50%" y="16px">NP</text></svg><svg width="100%" x="0%" y="48px"><defs /><svg width="100%" x="0" y="0px"><defs /><text text-anchor="middle" x="50%" y="16px">NNP</text></svg><svg width="100%" x="0%" y="48px"><defs /><svg width="100%" x="0" y="0px"><defs /><text text-anchor="middle" x="50%" y="16px">Sandy</text></svg></svg><line stroke="black" x1="50%" x2="50%" y1="19.2px" y2="48px" /></svg><line stroke="black" x1="50%" x2="50%" y1="19.2px" y2="48px" /></svg><line stroke="black" x1="50%" x2="70.8333%" y1="19.2px" y2="48px" /></svg><line stroke="black" x1="50%" x2="64.7059%" y1="19.2px" y2="48px" /></svg><line stroke="black" x1="50%" x2="14.9123%" y1="19.2px" y2="48px" /><svg width="70.1754%" x="29.8246%" y="48px"><defs /><svg width="100%" x="0" y="0px"><defs /><text text-anchor="middle" x="50%" y="16px">VP</text></svg><svg width="15%" x="0%" y="48px"><defs /><svg width="100%" x="0" y="0px"><defs /><text text-anchor="middle" x="50%" y="16px">ADVP</text></svg><svg width="100%" x="0%" y="48px"><defs /><svg width="100%" x="0" y="0px"><defs /><text text-anchor="middle" x="50%" y="16px">RB</text></svg><svg width="100%" x="0%" y="48px"><defs /><svg width="100%" x="0" y="0px"><defs /><text text-anchor="middle" x="50%" y="16px">both</text></svg></svg><line stroke="black" x1="50%" x2="50%" y1="19.2px" y2="48px" /></svg><line stroke="black" x1="50%" x2="50%" y1="19.2px" y2="48px" /></svg><line stroke="black" x1="50%" x2="7.5%" y1="19.2px" y2="48px" /><svg width="85%" x="15%" y="48px"><defs /><svg width="100%" x="0" y="0px"><defs /><text text-anchor="middle" x="50%" y="16px">VP</text></svg><svg width="32.3529%" x="0%" y="48px"><defs /><svg width="100%" x="0" y="0px"><defs /><text text-anchor="middle" x="50%" y="16px">V</text></svg><svg width="63.6364%" x="0%" y="48px"><defs /><svg width="100%" x="0" y="0px"><defs /><text text-anchor="middle" x="50%" y="16px">VBD</text></svg><svg width="100%" x="0%" y="48px"><defs /><svg width="100%" x="0" y="0px"><defs /><text text-anchor="middle" x="50%" y="16px">broke</text></svg></svg><line stroke="black" x1="50%" x2="50%" y1="19.2px" y2="48px" /></svg><line stroke="black" x1="50%" x2="31.8182%" y1="19.2px" y2="48px" /><svg width="36.3636%" x="63.6364%" y="48px"><defs /><svg width="100%" x="0" y="0px"><defs /><text text-anchor="middle" x="50%" y="16px">RP</text></svg><svg width="100%" x="0%" y="48px"><defs /><svg width="100%" x="0" y="0px"><defs /><text text-anchor="middle" x="50%" y="16px">up</text></svg></svg><line stroke="black" x1="50%" x2="50%" y1="19.2px" y2="48px" /></svg><line stroke="black" x1="50%" x2="81.8182%" y1="19.2px" y2="48px" /></svg><line stroke="black" x1="50%" x2="16.1765%" y1="19.2px" y2="48px" /><svg width="67.6471%" x="32.3529%" y="48px"><defs /><svg width="100%" x="0" y="0px"><defs /><text text-anchor="middle" x="50%" y="16px">PP</text></svg><svg width="26.087%" x="0%" y="48px"><defs /><svg width="100%" x="0" y="0px"><defs /><text text-anchor="middle" x="50%" y="16px">IN</text></svg><svg width="100%" x="0%" y="48px"><defs /><svg width="100%" x="0" y="0px"><defs /><text text-anchor="middle" x="50%" y="16px">with</text></svg></svg><line stroke="black" x1="50%" x2="50%" y1="19.2px" y2="48px" /></svg><line stroke="black" x1="50%" x2="13.0435%" y1="19.2px" y2="48px" /><svg width="73.913%" x="26.087%" y="48px"><defs /><svg width="100%" x="0" y="0px"><defs /><text text-anchor="middle" x="50%" y="16px">NP</text></svg><svg width="41.1765%" x="0%" y="48px"><defs /><svg width="100%" x="0" y="0px"><defs /><text text-anchor="middle" x="50%" y="16px">PRP$</text></svg><svg width="100%" x="0%" y="48px"><defs /><svg width="100%" x="0" y="0px"><defs /><text text-anchor="middle" x="50%" y="16px">their</text></svg></svg><line stroke="black" x1="50%" x2="50%" y1="19.2px" y2="48px" /></svg><line stroke="black" x1="50%" x2="20.5882%" y1="19.2px" y2="48px" /><svg width="58.8235%" x="41.1765%" y="48px"><defs /><svg width="100%" x="0" y="0px"><defs /><text text-anchor="middle" x="50%" y="16px">NNS</text></svg><svg width="100%" x="0%" y="48px"><defs /><svg width="100%" x="0" y="0px"><defs /><text text-anchor="middle" x="50%" y="16px">partners</text></svg></svg><line stroke="black" x1="50%" x2="50%" y1="19.2px" y2="48px" /></svg><line stroke="black" x1="50%" x2="70.5882%" y1="19.2px" y2="48px" /></svg><line stroke="black" x1="50%" x2="63.0435%" y1="19.2px" y2="48px" /></svg><line stroke="black" x1="50%" x2="66.1765%" y1="19.2px" y2="48px" /></svg><line stroke="black" x1="50%" x2="57.5%" y1="19.2px" y2="48px" /></svg><line stroke="black" x1="50%" x2="64.9123%" y1="19.2px" y2="48px" /></svg><line stroke="black" x1="50%" x2="47.5%" y1="19.2px" y2="48px" /><svg width="5%" x="95%" y="48px"><defs /><svg width="100%" x="0" y="0px"><defs /><text text-anchor="middle" x="50%" y="16px">.</text></svg><svg width="100%" x="0%" y="48px"><defs /><svg width="100%" x="0" y="0px"><defs /><text text-anchor="middle" x="50%" y="16px">.</text></svg></svg><line stroke="black" x1="50%" x2="50%" y1="19.2px" y2="48px" /></svg><line stroke="black" x1="50%" x2="97.5%" y1="19.2px" y2="48px" /></svg>